<?xml version="1.0" encoding="UTF-8"?>
<svg xmlns="http://www.w3.org/2000/svg" viewBox="0 0 308.98 53.86">
  <defs>
    <style>
      .uuid-5c627eef-6364-4a35-8e1a-4e7e2e5a7e20 {
        fill: #0060ac;
      }

      .uuid-5c627eef-6364-4a35-8e1a-4e7e2e5a7e20, .uuid-21ec3ba7-fe09-4aee-90c2-8887522f373b, .uuid-b496982f-0fcd-443a-97f1-5f3845e480a1, .uuid-613b64a1-687c-4754-b1b1-e99aa2c9593e, .uuid-709101e0-629a-4975-9b65-c4b046f4019e, .uuid-9cf90854-61cf-45a9-a6e2-2c5c070f5da9, .uuid-721ac053-d596-43b2-bb42-2bacea0c7682 {
        stroke-width: 0px;
      }

      .uuid-21ec3ba7-fe09-4aee-90c2-8887522f373b {
        fill: #ffda00;
      }

      .uuid-b496982f-0fcd-443a-97f1-5f3845e480a1 {
        fill: #e40521;
      }

      .uuid-709101e0-629a-4975-9b65-c4b046f4019e, .uuid-9cf90854-61cf-45a9-a6e2-2c5c070f5da9 {
        fill: #fff;
      }

      .uuid-9cf90854-61cf-45a9-a6e2-2c5c070f5da9 {
        stroke: #000;
      }

      .uuid-721ac053-d596-43b2-bb42-2bacea0c7682 {
        fill: #1d1d1b;
      }
    </style>
  </defs>
  <g id="uuid-d3d8796a-dfa1-4be7-91f9-9a0f675eb1c0" data-name="Gemeente Wassenaar">
    <rect class="uuid-709101e0-629a-4975-9b65-c4b046f4019e" width="308.98" height="53.86"/>
    <path class="uuid-721ac053-d596-43b2-bb42-2bacea0c7682" d="m114.54,18.78l-3.25,1.11v3.33h-1.38v1.97h1.38v7.2c0,.89.13,1.78.65,2.47.53.69,1.44,1.12,2.93,1.12h.01c.96,0,2.06-.25,2.94-.65l.09-.04v-2.83h-1.34l-.02.13c-.1.64-.47,1.07-1.13,1.08-.44,0-.62-.19-.75-.49-.12-.3-.14-.72-.14-1.09,0-.1,0-.2,0-.29v-6.61h3.37v-1.97h-3.37v-4.44Zm-33.8,12.97c-.45,1.16-1.91,1.93-3.11,1.92-2.42,0-3.79-2.14-3.86-4.45h7.87v-.54c0-3.18-2.03-5.83-5.39-5.83-3.54,0-5.93,3.06-5.93,6.42,0,4.04,3.03,6.71,6.96,6.72,1.41,0,3.22-.45,4.47-1.1l.08-.04v-3.19h-1.06l-.04.09Zm-4.66-6.73c1.35,0,2,.89,2.04,2.16v.02h-4.31c.28-1.2.94-2.18,2.28-2.18Zm17.64,6.73c-.45,1.16-1.91,1.93-3.11,1.92-2.42,0-3.8-2.14-3.86-4.45h7.87v-.54c0-3.18-2.03-5.83-5.39-5.83-3.54,0-5.93,3.06-5.93,6.42,0,4.04,3.03,6.71,6.96,6.72,1.41,0,3.21-.45,4.47-1.1l.08-.04v-3.19h-1.06l-.04.09Zm-4.66-6.73c1.35,0,2,.89,2.04,2.16v.02h-4.31c.27-1.2.94-2.18,2.27-2.18Zm40.33,6.73c-.45,1.16-1.91,1.93-3.11,1.92-2.42,0-3.8-2.14-3.86-4.45h7.87v-.54c0-3.18-2.03-5.83-5.39-5.83-3.54,0-5.93,3.06-5.93,6.42,0,4.04,3.03,6.71,6.97,6.72,1.41,0,3.21-.45,4.47-1.1l.08-.04v-3.19h-1.06l-.04.09Zm-4.66-6.73c1.35,0,2,.89,2.04,2.16v.02h-4.31c.28-1.2.94-2.18,2.27-2.18Zm-16.41,8.16v-5.83c0-2.65-1.79-4.5-4.06-4.5-1.29,0-2.77.45-3.69,1.23v-.86h-4.14v1.11h.15c.74,0,.72.58.74,1.33v7.53c-.02.7.02,1.32-.83,1.33h-.15v1.11h5.22v-1.11h-.15c-.85,0-.82-.63-.83-1.33v-6.11c.31-1.04,1.34-1.92,2.43-1.91,1.7.01,2.04,1.14,2.06,2.63v5.39c-.02.7.02,1.32-.83,1.33h-.15v1.11h5.22v-1.11h-.15c-.85,0-.82-.63-.83-1.33Zm-80.12-6.35l.12.02c.98.19.94.76.96,1.84v4.87h-.81c-4.25,0-7.52-3.18-7.52-7.43,0-3.26,2.06-6.19,5.48-6.2.63,0,1.52.15,2.23.48.72.34,1.23.85,1.23,1.58,0,.43-.15.67-.43,1.04l-.1.13,1.15.78,2.87-3.24-.08-.1c-1.69-2.19-4.66-3.23-7.33-3.23-5,0-8.87,3.98-8.88,8.91,0,1.99.74,4.41,2.61,6.34,1.87,1.93,4.86,3.35,9.32,3.35,1.55,0,3.14-.07,4.73-.37l.12-.02v-1.17h-.13c-.84-.13-.79-.35-.83-1,0-.09,0-.19,0-.29v-4.43c.01-1.09,0-1.67.84-1.84l.12-.03v-1.18h-5.69v1.19Zm17.55,4.91c-.45,1.16-1.91,1.93-3.11,1.92-2.42,0-3.79-2.14-3.86-4.45h7.87v-.54c0-3.18-2.03-5.83-5.39-5.83-3.54,0-5.93,3.06-5.93,6.42,0,4.04,3.03,6.71,6.96,6.72,1.41,0,3.21-.45,4.47-1.1l.08-.04v-3.19h-1.06l-.04.09Zm-4.66-6.73c1.35,0,2,.89,2.04,2.16v.02h-4.31c.27-1.2.94-2.18,2.28-2.18Zm27.15,8.16v-5.83c0-2.65-1.78-4.5-4.06-4.5-1.37,0-2.96.52-4.25,1.8-.81-1.35-2.2-1.8-3.62-1.8-1.38,0-2.72.52-3.56,1.48v-1.11h-4.14v1.11h.15c.74,0,.72.58.74,1.33v7.53c-.02.7.02,1.32-.83,1.33h-.15v1.11h5.22v-1.11h-.15c-.85,0-.82-.63-.83-1.33v-6.11c.31-1.04,1.34-1.92,2.43-1.91,1.7.01,2.04,1.14,2.06,2.63v5.39c-.02.7.02,1.32-.83,1.33h-.15v1.11h5.22v-1.11h-.15c-.85,0-.82-.63-.83-1.33v-6.11c.31-1.04,1.34-1.92,2.43-1.91,1.7.01,2.04,1.14,2.06,2.63v5.39c-.02.7.02,1.32-.83,1.33h-.15v1.11h5.22v-1.11h-.15c-.85,0-.82-.63-.84-1.33Zm223.01-10.19c-.37-.07-.72-.15-1.11-.15-1.15,0-2.44.55-3.12,1.51v-1.14h-3.82v1.11h.15c.72,0,.7.58.71,1.33v7.53c0,.33,0,.69-.1.93-.1.24-.23.38-.62.39h-.15v1.11h4.97v-1.11h-.15c-.38,0-.51-.15-.61-.39-.09-.25-.1-.6-.1-.93v-5.53c0-1.31.96-2.24,1.82-2.24.65,0,1.06.38,1.13.98v.13h1.11v-3.5l-.12-.02Zm-51.36,8.75c-.45,1.16-1.91,1.93-3.11,1.92-2.42,0-3.8-2.14-3.86-4.45h7.87v-.54c0-3.19-2.03-5.83-5.39-5.83-3.54,0-5.92,3.06-5.93,6.42,0,4.04,3.03,6.71,6.96,6.72,1.41,0,3.21-.45,4.47-1.1l.08-.04v-3.19h-1.06l-.04.09Zm-4.66-6.73c1.35.01,2,.89,2.04,2.17v.02h-4.32c.28-1.2.94-2.18,2.28-2.19Zm32.48,9.11c-.08-.25-.09-.61-.09-.94v-5.78c0-1.55-.4-2.71-1.31-3.46-.9-.75-2.27-1.09-4.15-1.09-1.52,0-3.06.27-4.52.75l-.1.03v2.94h1.05l.04-.08c.51-1.04,1.95-1.32,3.09-1.32,1.37.01,2.58.43,2.65,1.81-3.22.34-7.84.89-7.87,4.96,0,2.5,1.93,4.06,4.33,4.06h0c1.35,0,2.6-.46,3.53-1.45v1.08h3.99v-1.11h-.15c-.31,0-.41-.13-.5-.39Zm-3.34-3.2c0,1.26-.91,2.75-2.7,2.75-1.03,0-1.71-.75-1.72-1.82-.03-1.92,2.42-2.55,4.42-2.85v1.92Zm-39.95-2.92c-1.87-.55-3.61-.92-3.56-2,0-.4.28-.67.68-.86.4-.19.89-.27,1.22-.27.41,0,.99.08,1.45.29.46.21.78.52.78,1.01,0,.11-.04.28-.09.42l-.04.14,1.18.47.07-.11,1.75-2.86-.13-.08c-1.48-.9-3.23-1.3-4.92-1.3-2.29,0-5.37,1.02-5.39,3.79,0,2.11,1.95,2.83,3.77,3.39,1.86.56,3.59,1.03,3.56,2.37,0,.56-.35.93-.84,1.2-.5.26-1.13.38-1.61.37-.47,0-1.16-.1-1.71-.35-.55-.26-.94-.64-.95-1.22,0-.2.04-.31.13-.5l.07-.13-1.18-.59-2.07,2.87.11.09c1.51,1.31,3.59,1.86,5.53,1.86,2.63,0,5.97-1.07,5.98-4.21,0-2.37-1.94-3.23-3.77-3.78Zm-22.67,6.12c-.08-.25-.09-.61-.09-.94v-5.78c0-1.55-.4-2.7-1.31-3.46-.91-.75-2.27-1.09-4.16-1.09-1.52,0-3.06.27-4.52.75l-.1.03v2.94h1.05l.04-.08c.51-1.04,1.95-1.32,3.09-1.32,1.37.01,2.58.43,2.65,1.81-3.22.35-7.84.89-7.87,4.96,0,2.5,1.93,4.06,4.33,4.06h0c1.35,0,2.6-.47,3.54-1.45v1.08h3.99v-1.11h-.15c-.31,0-.41-.13-.5-.39Zm-3.34-3.2c0,1.27-.91,2.75-2.7,2.75-1.02,0-1.71-.75-1.72-1.82-.03-1.92,2.42-2.55,4.42-2.85v1.92Zm13.24-2.92c-1.87-.55-3.61-.92-3.56-2,0-.4.28-.67.68-.86.4-.19.89-.27,1.22-.27.41,0,.99.08,1.45.29.46.21.78.52.78,1.01,0,.11-.04.28-.09.42l-.04.13,1.18.47.07-.11,1.75-2.86-.13-.08c-1.48-.9-3.23-1.3-4.92-1.3-2.29,0-5.37,1.01-5.39,3.79,0,2.12,1.95,2.83,3.77,3.39,1.86.56,3.59,1.03,3.56,2.37,0,.56-.35.93-.85,1.2-.5.26-1.13.37-1.61.37-.47,0-1.16-.1-1.71-.35-.55-.26-.94-.64-.94-1.22,0-.2.04-.31.13-.5l.07-.14-1.18-.59-2.07,2.87.1.09c1.51,1.31,3.59,1.86,5.54,1.86,2.63,0,5.96-1.07,5.98-4.21,0-2.37-1.94-3.23-3.77-3.78Zm69.32,6.12c-.08-.25-.09-.61-.08-.94v-5.78c0-1.55-.4-2.7-1.31-3.46-.9-.75-2.27-1.09-4.15-1.09-1.52,0-3.06.27-4.52.75l-.11.03v2.94h1.05l.04-.08c.51-1.04,1.95-1.32,3.09-1.32,1.37.01,2.58.43,2.65,1.81-3.22.35-7.84.89-7.87,4.96,0,2.5,1.93,4.06,4.33,4.06h0c1.35,0,2.6-.47,3.54-1.45v1.08h3.99v-1.11h-.15c-.31,0-.41-.14-.5-.39Zm-3.34-3.2c0,1.26-.91,2.75-2.7,2.75-1.03,0-1.71-.75-1.72-1.82-.03-1.92,2.42-2.55,4.42-2.85v1.92Zm-23.15,2.26v-5.83c0-2.65-1.79-4.5-4.06-4.5-1.29,0-2.77.45-3.69,1.23v-.86h-4.13v1.11h.15c.74,0,.72.58.74,1.33v7.53c-.02.7.02,1.32-.83,1.33h-.15v1.11h5.22v-1.11h-.15c-.85,0-.82-.63-.84-1.33v-6.11c.31-1.04,1.34-1.92,2.44-1.91,1.7.01,2.04,1.14,2.06,2.63v5.39c-.02.7.02,1.32-.83,1.33h-.15v1.11h5.22v-1.11h-.15c-.85,0-.82-.63-.84-1.33Zm-63.53-14.24v-1.19h-4.7v1.18l.12.02c.63.15.75.41.77.82,0,.29-.09.65-.19,1.03l-2.61,9.35-2.71-10.38c-.03-.11-.04-.2-.04-.28,0-.39.3-.48.87-.54h.14v-1.21h-5.61v1.19l.13.02c.51.07.6.33.83,1.03l.53,1.75-2.16,8.5-2.68-9.9c-.09-.35-.16-.63-.16-.82.01-.31.1-.44.75-.56l.13-.02v-1.19h-5.54v1.19l.13.02c.63.1.62.38.81,1.02l4.53,15.63h3.35l.03-.11,2.22-8.74,2.44,8.86h3.23l4.29-15.36c.22-.75.19-1.17.98-1.29l.13-.02Z"/>
  </g>
  <g id="uuid-9f9cb61f-6b9e-4e6c-bc56-87f99fa07dfc" data-name="Laag 1">
    <g>
      <path class="uuid-b496982f-0fcd-443a-97f1-5f3845e480a1" d="m143.47,42.29h5.21c.86,0,1.57.88,1.69,1.17.03.06.03.04.03.04v-13.41s-12.2,0-12.2,0v7.17s-.02,2.29,1.66,3.78c1.54,1.37,3.61,1.25,3.61,1.25Z"/>
      <path class="uuid-613b64a1-687c-4754-b1b1-e99aa2c9593e" d="m150.41,43.61c-.07,0-.08-.04-.09-.05h0s-.02-.03-.03-.05h0c-.05-.12-.25-.41-.54-.66h0c-.29-.25-.66-.45-1.05-.45h-5.34c-.47,0-2.2-.08-3.56-1.28h0c-1.68-1.5-1.69-3.73-1.69-3.85h0v-7.28h12.41v13.53s0,0,0,0c0,0,0,.02-.01.03h0s-.04.05-.09.05h0Zm-.53-.92c.18.15.32.31.43.46h0v-12.96s-12,0-12,0v7.07h0c0,.11.03,2.29,1.62,3.7h0c1.29,1.14,2.97,1.23,3.42,1.23h0c.07,0,.11,0,.11,0h5.22c.46,0,.88.23,1.19.5h0Z"/>
    </g>
    <g>
      <path class="uuid-b496982f-0fcd-443a-97f1-5f3845e480a1" d="m158.9,17.42c.14-.45-.31-.62-.31-.62,0,0-4.07-.97-8.23-.97-4.5,0-8.42.93-8.42.93,0,0-.5.13-.33.62.2.58.79.52.79.52h15.43s.91.02,1.07-.49Z"/>
      <path class="uuid-613b64a1-687c-4754-b1b1-e99aa2c9593e" d="m141.55,17.4c-.03-.08-.04-.15-.04-.22h0c0-.19.11-.32.21-.39h0c.1-.07.2-.1.2-.1h0s3.93-.93,8.44-.94h.01c4.17,0,8.23.97,8.23.97h0s0,0,0,0c0,0,.1.03.19.11h0c.09.08.19.21.19.4h0c0,.06,0,.12-.03.19h0l-.06-.02.06.02c-.09.27-.34.39-.58.46h0c-.24.06-.47.07-.54.07h0s-.02,0-.02,0h-15.42s-.02,0-.05,0h0c-.16,0-.62-.06-.79-.57h0Zm8.81-1.5c-3.37,0-6.42.53-7.73.79h0c-.44.09-.68.14-.68.14h0s-.02,0-.05.02h0s-.07.03-.11.06h0c-.08.06-.15.14-.15.28h0s0,.1.03.17h0c.16.44.54.48.68.48h0s.04,0,.04,0h15.43s0,0,.02,0h0c.06,0,.28,0,.5-.07h0c.22-.06.42-.17.48-.37h0c.02-.06.03-.11.03-.15h0c0-.2-.16-.31-.25-.36h0s-.04-.02-.04-.02h0s-.28-.07-.69-.15h0c-.44-.09-1.08-.21-1.85-.33h0c-1.53-.24-3.58-.48-5.66-.48h0Z"/>
    </g>
    <g>
      <path class="uuid-5c627eef-6364-4a35-8e1a-4e7e2e5a7e20" d="m157.35,42.28s-4.82,0-5.21,0c-.86,0-1.57.88-1.69,1.17-.03.06-.03.04-.03.04v-13.41s12.2,0,12.2,0v7.17s.02,2.29-1.66,3.78c-1.54,1.37-3.61,1.25-3.61,1.25Z"/>
      <path class="uuid-613b64a1-687c-4754-b1b1-e99aa2c9593e" d="m150.33,43.54s0-.03-.01-.04h0s0-13.53,0-13.53h12.41v7.28h0c0,.12-.02,2.36-1.69,3.86h0c-1.35,1.2-3.08,1.28-3.56,1.28h0c-.07,0-.11,0-.12,0h-5.22c-.39,0-.76.21-1.05.45h0c-.29.24-.49.54-.54.65h0s0,0,0,0c0,.02-.02.04-.03.05h0s-.02.04-.09.05h0s-.08-.04-.09-.05h0Zm.19-.4c.11-.14.25-.3.43-.46h0c.31-.26.72-.5,1.19-.5h5.22v.2s0-.1,0-.1v-.1h.12c.45,0,2.13-.08,3.42-1.23h0c1.6-1.42,1.63-3.6,1.62-3.7h0v-7.07h-12v12.96h0Z"/>
    </g>
    <path class="uuid-613b64a1-687c-4754-b1b1-e99aa2c9593e" d="m159.11,34.54h-.07s.05-.03.07-.03v.03Z"/>
    <g>
      <rect class="uuid-5c627eef-6364-4a35-8e1a-4e7e2e5a7e20" x="138.21" y="17.88" width="12.2" height="12.2"/>
      <path class="uuid-613b64a1-687c-4754-b1b1-e99aa2c9593e" d="m138.11,30.19v-12.41h12.41v12.41h-12.41Zm12.31-.1v-.1.1h0Zm-12.1-.1h12v-12h-12v12h0Z"/>
    </g>
    <g>
      <rect class="uuid-b496982f-0fcd-443a-97f1-5f3845e480a1" x="150.41" y="17.88" width="12.2" height="12.2"/>
      <path class="uuid-613b64a1-687c-4754-b1b1-e99aa2c9593e" d="m150.31,30.19v-12.41h12.41v12.41h-12.41Zm12.31-.1v-.1.1h0Zm-12.1-.1h12v-12h-12v12h0Z"/>
    </g>
    <g>
      <g>
        <path class="uuid-9cf90854-61cf-45a9-a6e2-2c5c070f5da9" d="m142.45,25.2c0,.11,0,.22.06.32.08.15.17.28.25.42.03.05.07.09.12.13.01,0,.02.03.03.04.44.44,1.05.62,1.65.58.17-.01.34-.07.51-.12.09-.02.15-.09.24-.13.09-.05.16-.12.25-.16.06-.04.12-.04.16-.1,0,0,.13-.14.12-.15.17-.12.16-.15.24-.37.01-.04.04-.06.06-.1.03-.08.04-.17.06-.26,0,0,0-.01.02,0,.04.03.07.07.09.11,0,.03.01.06.02.09.08.23.1.46.05.7-.07.33-.13.63-.36.89-.01.02-.05.06-.05.09,0,0-.09.09-.09.1-.25.22-.34.33-.65.48-.06.03-.11.07-.18.09-.03.01-.08.01-.12.02-.32.1-.52.16-.97.09-.35-.05-.69-.26-.97-.47-.31-.22-.43-.61-.67-.91-.02-.03-.09-.66-.08-.69.03-.12,0-.22.05-.34.02-.05,0-.08.04-.13.03-.04.02-.09.04-.13.02-.04.08-.05.1-.09Z"/>
        <path class="uuid-613b64a1-687c-4754-b1b1-e99aa2c9593e" d="m142.18,25.95c0-.33.09-.65.25-.92h0s.06-.04.09-.03h0s.04.06.03.1h0c-.14.25-.23.54-.23.84h0c0,1.09.88,1.96,1.97,1.96h0c.54,0,1.05-.22,1.42-.57h0c.37-.36.6-.85.6-1.39h0c0-.3-.11-.59-.24-.85h0s0-.07.03-.09h0s.07,0,.09.03h0c.13.27.25.58.25.91h0c0,1.16-1,2.1-2.16,2.1h0c-1.16,0-2.1-.94-2.1-2.1h0Z"/>
        <path class="uuid-613b64a1-687c-4754-b1b1-e99aa2c9593e" d="m142.37,25.53c0-.15.02-.27.04-.43h0l.14.02c-.03.17-.04.28-.04.41h0c0,.45.22.86.55,1.16h0c.33.3.78.49,1.23.49h0c.45,0,.91-.18,1.26-.47h0c.35-.29.58-.7.58-1.17h0c0-.06,0-.11,0-.16h0c0-.09,0-.16-.03-.23h0l.13-.04c.03.09.03.18.03.27h0s0,.1,0,.16h0c0,1.04-1,1.78-1.97,1.78h0c-.97,0-1.91-.79-1.92-1.78h0Z"/>
        <path class="uuid-613b64a1-687c-4754-b1b1-e99aa2c9593e" d="m143.02,26.29c-.36-.28-.63-.63-.63-.99h0c0-.08.01-.16.04-.23h0s.05-.05.09-.04h0s.05.05.04.09h0c-.02.06-.03.12-.03.18h0c0,.28.23.62.58.88h0c.34.26.79.44,1.19.44h0c.46,0,.92-.17,1.27-.41h0c.34-.25.56-.57.56-.88h0c0-.05,0-.11-.02-.16h0s.01-.08.05-.08h0s.07.01.08.05h0c.02.06.02.13.02.2h0c0,.38-.25.73-.62.99h0c-.37.26-.85.43-1.35.43h0c-.44,0-.91-.19-1.27-.47h0Z"/>
      </g>
      <g>
        <path class="uuid-9cf90854-61cf-45a9-a6e2-2c5c070f5da9" d="m144.81,20.23c0,.11,0,.22.06.32.08.14.17.28.25.42.03.05.07.09.12.13.01,0,.02.03.03.04.44.44,1.05.62,1.65.58.17-.01.34-.07.51-.12.09-.02.15-.09.24-.13.09-.05.16-.12.25-.16.06-.03.12-.04.16-.09,0,0,.13-.14.11-.15.17-.13.16-.15.24-.37.01-.04.04-.06.06-.1.03-.08.04-.17.06-.26,0,0,0-.01.02,0,.04.03.07.07.09.11,0,.02.01.06.02.09.08.23.09.46.05.7-.06.33-.13.63-.36.89-.01.02-.05.06-.05.09,0,0-.09.09-.09.1-.25.22-.34.33-.65.48-.06.03-.12.07-.18.09-.03.01-.09.01-.12.02-.32.1-.52.16-.97.09-.35-.05-.69-.27-.98-.47-.31-.22-.43-.61-.67-.91-.02-.03-.09-.66-.08-.69.03-.12,0-.22.05-.34.02-.05,0-.08.04-.13.03-.04.02-.08.04-.13.02-.04.08-.05.1-.1Z"/>
        <path class="uuid-613b64a1-687c-4754-b1b1-e99aa2c9593e" d="m144.54,20.97c0-.33.09-.65.25-.91h0s.06-.04.09-.02h0s.04.06.03.09h0c-.14.25-.23.54-.23.84h0c0,1.09.88,1.96,1.97,1.97h0c.54,0,1.05-.22,1.42-.58h0c.37-.36.6-.85.6-1.39h0c0-.3-.11-.59-.24-.85h0s0-.07.03-.09h0s.07,0,.09.03h0c.13.27.25.58.25.91h0c0,1.17-1,2.1-2.16,2.1h0c-1.16,0-2.1-.94-2.1-2.1h0Z"/>
        <path class="uuid-613b64a1-687c-4754-b1b1-e99aa2c9593e" d="m144.72,20.56c0-.15.02-.27.04-.44h0s.04-.06.08-.06h0s.06.04.06.08h0c-.02.17-.04.28-.04.42h0c0,.45.22.86.55,1.16h0c.33.3.78.49,1.23.49h0c.45,0,.91-.18,1.26-.47h0c.35-.29.58-.7.58-1.17h0c0-.06,0-.11,0-.16h0c0-.09,0-.16-.03-.23h0s0-.08.05-.09h0s.07,0,.09.04h0c.03.09.03.18.03.27h0c0,.05,0,.1,0,.16h0c0,1.04-1,1.78-1.97,1.78h0c-.97,0-1.91-.79-1.92-1.78h0Z"/>
        <path class="uuid-613b64a1-687c-4754-b1b1-e99aa2c9593e" d="m145.38,21.31c-.36-.28-.63-.63-.63-.99h0c0-.08.01-.16.04-.23h0s.05-.05.09-.04h0s.05.05.04.09h0c-.02.06-.03.12-.03.18h0c0,.28.23.62.58.88h0c.34.26.79.44,1.19.44h0c.46,0,.92-.16,1.27-.41h0c.34-.25.56-.57.56-.88h0c0-.05,0-.11-.02-.16h0s.01-.08.05-.08h0s.07.01.08.05h0c.02.06.03.13.03.2h0c0,.37-.25.73-.62.99h0c-.37.26-.85.44-1.35.44h0c-.44,0-.9-.19-1.27-.47h0Z"/>
      </g>
      <g>
        <path class="uuid-9cf90854-61cf-45a9-a6e2-2c5c070f5da9" d="m140.03,20.23c0,.11,0,.22.06.32.08.15.17.28.25.42.03.05.07.09.12.13.01,0,.02.03.04.04.44.44,1.05.62,1.64.58.17-.01.34-.07.51-.12.09-.02.15-.09.24-.13.09-.05.16-.11.25-.16.06-.03.12-.04.16-.09,0,0,.13-.14.12-.15.17-.12.16-.14.24-.37.01-.04.04-.06.06-.1.03-.09.04-.17.06-.26,0,0,0-.01.02,0,.04.03.07.07.09.11,0,.03.01.06.02.09.08.23.09.46.05.7-.06.33-.13.63-.36.89-.01.02-.05.06-.05.08,0,0-.09.09-.09.1-.25.22-.34.32-.65.48-.06.03-.12.07-.18.09-.03.01-.08.01-.12.02-.32.1-.52.15-.97.09-.35-.05-.69-.27-.97-.47-.31-.22-.43-.61-.67-.91-.02-.03-.09-.66-.08-.69.03-.12,0-.22.05-.34.02-.05,0-.09.04-.13.03-.04.02-.09.04-.13.02-.04.08-.05.1-.09Z"/>
        <path class="uuid-613b64a1-687c-4754-b1b1-e99aa2c9593e" d="m139.75,20.98c0-.33.09-.65.25-.92h0s.06-.04.09-.02h0s.04.06.03.09h0c-.14.25-.23.54-.23.85h0c0,1.09.88,1.96,1.97,1.97h0c.54,0,1.05-.22,1.42-.58h0c.37-.36.6-.85.6-1.39h0c0-.3-.11-.59-.24-.85h0s0-.07.03-.09h0s.07,0,.09.03h0c.13.27.25.58.25.91h0c0,1.16-1,2.1-2.16,2.1h0c-1.16,0-2.1-.94-2.1-2.1h0Z"/>
        <path class="uuid-613b64a1-687c-4754-b1b1-e99aa2c9593e" d="m139.94,20.56c0-.15.02-.27.04-.43h0l.14.02c-.02.17-.04.28-.04.41h0c0,.45.22.86.55,1.16h0c.33.3.78.49,1.23.49h0c.45,0,.91-.17,1.26-.47h0c.35-.29.58-.7.58-1.17h0c0-.06,0-.11,0-.16h0c0-.08,0-.16-.03-.23h0l.13-.04c.03.09.03.18.03.27h0c0,.05,0,.1,0,.16h0c0,1.04-1,1.78-1.97,1.78h0c-.97,0-1.91-.8-1.92-1.78h0Z"/>
        <path class="uuid-613b64a1-687c-4754-b1b1-e99aa2c9593e" d="m140.59,21.32c-.36-.28-.63-.63-.63-.99h0c0-.08.01-.16.04-.23h0s.05-.05.09-.04h0s.05.05.04.09h0c-.02.06-.03.12-.03.18h0c0,.28.23.62.58.88h0c.35.26.79.44,1.19.44h0c.46,0,.92-.16,1.27-.41h0c.34-.25.56-.57.56-.88h0c0-.05,0-.11-.02-.16h0s.01-.07.05-.08h0s.07.01.08.05h0c.02.06.02.13.02.2h0c0,.37-.25.73-.62.99h0c-.37.26-.85.44-1.35.44h0c-.44,0-.91-.2-1.27-.47h0Z"/>
      </g>
    </g>
    <g>
      <g>
        <g>
          <rect class="uuid-21ec3ba7-fe09-4aee-90c2-8887522f373b" x="138.22" y="34.36" width="12.16" height="3.15"/>
          <path class="uuid-613b64a1-687c-4754-b1b1-e99aa2c9593e" d="m138.12,37.61v-3.35h12.36v3.35h-12.36Zm12.26-.1v-.1.1h0Zm-12.06-.1h11.96v-2.94h-11.96v2.94h0Z"/>
        </g>
        <g>
          <line class="uuid-21ec3ba7-fe09-4aee-90c2-8887522f373b" x1="138.34" y1="34.45" x2="139.8" y2="35.9"/>
          <polygon class="uuid-613b64a1-687c-4754-b1b1-e99aa2c9593e" points="138.27 34.52 138.42 34.37 139.87 35.83 139.73 35.97 138.27 34.52 138.27 34.52"/>
        </g>
        <g>
          <line class="uuid-21ec3ba7-fe09-4aee-90c2-8887522f373b" x1="148.81" y1="35.92" x2="150.31" y2="37.43"/>
          <polygon class="uuid-613b64a1-687c-4754-b1b1-e99aa2c9593e" points="148.74 36 148.89 35.85 150.38 37.35 150.24 37.5 148.74 36 148.74 36"/>
        </g>
        <g>
          <line class="uuid-21ec3ba7-fe09-4aee-90c2-8887522f373b" x1="138.34" y1="37.39" x2="139.79" y2="35.94"/>
          <polygon class="uuid-613b64a1-687c-4754-b1b1-e99aa2c9593e" points="138.26 37.32 139.72 35.87 139.86 36.01 138.41 37.46 138.26 37.32 138.26 37.32"/>
        </g>
        <g>
          <line class="uuid-21ec3ba7-fe09-4aee-90c2-8887522f373b" x1="150.29" y1="34.43" x2="148.84" y2="35.88"/>
          <polygon class="uuid-613b64a1-687c-4754-b1b1-e99aa2c9593e" points="148.77 35.81 150.22 34.36 150.37 34.5 148.91 35.95 148.77 35.81 148.77 35.81"/>
        </g>
      </g>
      <polygon class="uuid-613b64a1-687c-4754-b1b1-e99aa2c9593e" points="139.71 36.01 139.71 35.8 148.89 35.8 148.89 36.01 139.71 36.01 139.71 36.01"/>
    </g>
    <g>
      <g>
        <path class="uuid-9cf90854-61cf-45a9-a6e2-2c5c070f5da9" d="m154.69,37.47c0,.11,0,.22.06.32.08.14.17.28.25.42.03.04.07.09.12.13.01,0,.02.03.03.04.44.44,1.05.62,1.65.58.17-.01.34-.07.51-.12.09-.02.15-.08.24-.13.09-.04.16-.12.25-.16.05-.03.12-.04.16-.09,0,0,.13-.14.12-.15.17-.12.16-.15.24-.37.01-.04.04-.06.06-.1.03-.09.04-.17.06-.26,0,0,0-.01.02,0,.04.03.07.07.09.11,0,.03.01.06.02.09.08.23.09.46.05.7-.06.33-.13.63-.36.89-.01.02-.05.06-.05.08,0,0-.09.1-.09.1-.25.22-.34.33-.65.48-.06.03-.12.07-.18.09-.03.01-.08.01-.12.02-.32.1-.52.15-.97.09-.35-.05-.69-.26-.97-.46-.31-.22-.43-.61-.67-.91-.02-.03-.09-.66-.08-.69.03-.12,0-.22.05-.34.02-.05,0-.09.04-.13.03-.04.02-.09.04-.13.02-.04.08-.05.1-.09Z"/>
        <path class="uuid-613b64a1-687c-4754-b1b1-e99aa2c9593e" d="m154.41,38.21c0-.33.09-.65.25-.91h0s.06-.04.09-.02h0s.05.06.03.09h0c-.14.25-.23.54-.23.85h0c0,1.09.88,1.96,1.97,1.97h0c.54,0,1.05-.22,1.42-.58h0c.37-.36.61-.85.61-1.39h0c0-.3-.11-.58-.24-.85h0s0-.08.03-.09h0s.08,0,.09.03h0c.13.27.25.57.25.91h0c0,1.16-1,2.1-2.16,2.1h0c-1.16,0-2.1-.94-2.1-2.1h0Z"/>
        <path class="uuid-613b64a1-687c-4754-b1b1-e99aa2c9593e" d="m154.6,37.8c0-.15.02-.27.04-.44h0l.14.02c-.02.17-.04.28-.04.42h0c0,.45.22.86.55,1.16h0c.33.3.78.49,1.23.49h0c.45,0,.91-.17,1.26-.47h0c.35-.3.58-.71.58-1.17h0v-.16h0c0-.09,0-.16-.03-.23h0l.13-.04c.03.09.03.18.03.27h0c0,.05,0,.1,0,.16h0c0,1.04-1,1.78-1.97,1.78h0c-.97,0-1.91-.79-1.92-1.78h0Z"/>
        <path class="uuid-613b64a1-687c-4754-b1b1-e99aa2c9593e" d="m155.25,38.55c-.36-.28-.63-.63-.63-.99h0c0-.08.01-.16.04-.23h0s.05-.05.09-.04h0s.05.06.04.09h0c-.02.06-.03.12-.03.18h0c0,.28.23.62.58.88h0c.34.26.79.44,1.19.44h0c.46,0,.93-.16,1.27-.41h0c.34-.25.56-.57.56-.88h0c0-.06,0-.11-.02-.17h0s.01-.07.05-.08h0s.07.01.08.05h0c.02.06.03.13.03.2h0c0,.37-.25.73-.62.99h0c-.37.26-.85.44-1.35.44h0c-.43,0-.9-.19-1.27-.47h0Z"/>
      </g>
      <g>
        <path class="uuid-9cf90854-61cf-45a9-a6e2-2c5c070f5da9" d="m157.05,32.5c0,.11,0,.22.06.32.08.14.16.28.25.42.03.05.07.09.12.13.01,0,.02.02.03.04.44.44,1.05.62,1.65.58.17-.01.34-.07.51-.12.09-.02.15-.08.24-.12.09-.05.16-.12.25-.16.06-.03.12-.04.16-.09,0,0,.13-.14.12-.15.17-.12.16-.15.24-.37.01-.04.04-.06.05-.1.03-.08.04-.17.06-.26,0,0,0-.01.02,0,.04.03.07.07.09.11,0,.03.01.06.02.09.08.23.09.46.05.7-.06.33-.13.63-.36.89-.01.01-.05.06-.05.08,0,0-.09.09-.09.1-.25.22-.34.32-.65.48-.06.03-.12.07-.18.09-.03.01-.08.01-.12.02-.32.1-.53.16-.97.09-.35-.05-.69-.27-.97-.47-.32-.22-.43-.61-.67-.91-.02-.03-.09-.66-.08-.69.03-.12,0-.22.05-.34.02-.05,0-.08.04-.13.03-.04.02-.09.04-.13.02-.04.08-.05.1-.09Z"/>
        <path class="uuid-613b64a1-687c-4754-b1b1-e99aa2c9593e" d="m156.78,33.24c0-.33.09-.65.25-.91h0s.06-.04.09-.02h0s.04.06.02.09h0c-.14.25-.23.54-.23.85h0c0,1.09.88,1.96,1.97,1.96h0c.54,0,1.05-.22,1.42-.57h0c.37-.36.6-.85.6-1.39h0c0-.3-.11-.59-.24-.85h0s0-.08.03-.09h0s.07,0,.09.03h0c.13.27.25.58.25.91h0c0,1.16-1,2.1-2.16,2.1h0c-1.16,0-2.1-.94-2.1-2.1h0Z"/>
        <path class="uuid-613b64a1-687c-4754-b1b1-e99aa2c9593e" d="m156.96,32.83c0-.15.02-.27.04-.44h0l.13.02c-.02.17-.04.28-.04.42h0c0,.45.22.85.55,1.16h0c.33.3.78.48,1.23.48h0c.45,0,.91-.17,1.26-.47h0c.35-.29.58-.7.58-1.17h0c0-.06,0-.11,0-.16h0c0-.08,0-.16-.03-.23h0l.13-.04c.03.09.03.18.03.27h0v.16h0c0,1.04-1.01,1.78-1.97,1.78h0c-.97,0-1.91-.8-1.92-1.78h0Z"/>
        <path class="uuid-613b64a1-687c-4754-b1b1-e99aa2c9593e" d="m157.61,33.58c-.36-.28-.63-.63-.63-.99h0c0-.08.01-.16.04-.23h0s.05-.05.09-.04h0s.05.05.04.09h0c-.03.06-.04.12-.04.18h0c0,.28.23.62.58.88h0c.34.26.79.44,1.19.44h0c.46,0,.92-.17,1.27-.41h0c.34-.25.56-.57.56-.88h0c0-.05,0-.11-.02-.16h0s.01-.08.05-.08h0s.07.02.08.05h0c.02.06.02.13.02.2h0c0,.38-.25.73-.62.99h0c-.37.26-.85.43-1.35.43h0c-.44,0-.9-.19-1.27-.47h0Z"/>
      </g>
      <g>
        <path class="uuid-9cf90854-61cf-45a9-a6e2-2c5c070f5da9" d="m152.27,32.5c0,.11,0,.22.06.32.08.14.17.28.25.42.03.05.07.09.12.13.01,0,.02.03.03.04.44.44,1.05.62,1.65.58.17-.01.34-.07.51-.12.08-.02.15-.09.24-.13.09-.05.16-.12.25-.16.06-.03.12-.04.16-.09,0,0,.13-.14.11-.15.17-.13.16-.15.24-.37.01-.04.04-.07.06-.1.03-.09.04-.17.06-.26,0,0,0-.01.02,0,.04.03.07.07.09.11,0,.03.01.06.02.09.08.23.1.46.05.7-.06.33-.13.63-.36.89-.01.02-.05.06-.05.09,0,0-.09.09-.09.1-.25.22-.34.33-.65.48-.06.03-.12.07-.18.1-.03.01-.09.01-.12.02-.32.1-.52.16-.97.09-.35-.05-.69-.26-.97-.46-.31-.22-.43-.61-.67-.91-.02-.03-.09-.66-.08-.69.03-.12,0-.22.05-.34.02-.05,0-.08.04-.13.03-.04.02-.08.04-.13.02-.04.08-.05.1-.09Z"/>
        <path class="uuid-613b64a1-687c-4754-b1b1-e99aa2c9593e" d="m151.99,33.25c0-.33.09-.64.25-.91h0s.06-.04.09-.03h0s.04.06.02.1h0c-.14.25-.23.54-.23.84h0c0,1.09.88,1.97,1.97,1.97h0c.54,0,1.05-.22,1.42-.58h0c.37-.36.6-.85.6-1.39h0c0-.3-.11-.58-.24-.85h0s0-.08.03-.09h0s.07,0,.09.03h0c.13.27.25.58.25.91h0c0,1.17-1,2.11-2.16,2.11h0c-1.16,0-2.1-.94-2.1-2.11h0Z"/>
        <path class="uuid-613b64a1-687c-4754-b1b1-e99aa2c9593e" d="m152.18,32.83c0-.15.02-.27.04-.44h0l.13.02c-.02.17-.04.28-.04.42h0c0,.45.22.86.55,1.15h0c.33.3.78.49,1.23.49h0c.45,0,.91-.18,1.26-.47h0c.35-.29.58-.7.58-1.17h0v-.16h0c0-.09,0-.16-.03-.23h0l.13-.04c.03.09.03.18.03.27h0v.16h0c0,1.04-1,1.78-1.97,1.78h0c-.97,0-1.91-.79-1.92-1.78h0Z"/>
        <path class="uuid-613b64a1-687c-4754-b1b1-e99aa2c9593e" d="m152.83,33.58c-.36-.28-.63-.64-.63-.99h0c0-.08.01-.16.04-.23h0s.05-.05.09-.04h0s.05.05.04.09h0c-.02.06-.03.12-.03.18h0c0,.28.23.62.58.88h0c.35.26.79.44,1.19.44h0c.46,0,.92-.16,1.27-.41h0c.34-.25.56-.57.56-.88h0c0-.05,0-.11-.02-.16h0s.01-.07.05-.08h0s.07.01.08.05h0c.02.07.03.13.03.2h0c0,.37-.25.73-.62.99h0c-.37.26-.85.44-1.35.44h0c-.44,0-.91-.19-1.27-.47h0Z"/>
      </g>
    </g>
    <g>
      <g>
        <rect class="uuid-21ec3ba7-fe09-4aee-90c2-8887522f373b" x="150.42" y="22.27" width="12.16" height="3.15"/>
        <path class="uuid-613b64a1-687c-4754-b1b1-e99aa2c9593e" d="m150.32,25.52v-3.35h12.37v3.35h-12.37Zm12.26-.1v-.1.1h0Zm-12.06-.1h11.96v-2.94h-11.96v2.94h0Z"/>
      </g>
      <g>
        <line class="uuid-21ec3ba7-fe09-4aee-90c2-8887522f373b" x1="150.54" y1="22.35" x2="151.99" y2="23.81"/>
        <polygon class="uuid-613b64a1-687c-4754-b1b1-e99aa2c9593e" points="150.47 22.43 150.61 22.28 152.07 23.74 151.92 23.88 150.47 22.43 150.47 22.43"/>
      </g>
      <g>
        <line class="uuid-21ec3ba7-fe09-4aee-90c2-8887522f373b" x1="161.01" y1="23.83" x2="162.46" y2="25.29"/>
        <polygon class="uuid-613b64a1-687c-4754-b1b1-e99aa2c9593e" points="160.94 23.91 161.08 23.76 162.54 25.21 162.39 25.36 160.94 23.91 160.94 23.91"/>
      </g>
      <g>
        <line class="uuid-21ec3ba7-fe09-4aee-90c2-8887522f373b" x1="150.53" y1="25.3" x2="151.99" y2="23.85"/>
        <polygon class="uuid-613b64a1-687c-4754-b1b1-e99aa2c9593e" points="150.46 25.23 151.91 23.78 152.06 23.92 150.61 25.38 150.46 25.23 150.46 25.23"/>
      </g>
      <g>
        <line class="uuid-21ec3ba7-fe09-4aee-90c2-8887522f373b" x1="162.49" y1="22.34" x2="161.04" y2="23.79"/>
        <polygon class="uuid-613b64a1-687c-4754-b1b1-e99aa2c9593e" points="160.96 23.72 162.42 22.27 162.56 22.41 161.11 23.86 160.96 23.72 160.96 23.72"/>
      </g>
      <g>
        <line class="uuid-21ec3ba7-fe09-4aee-90c2-8887522f373b" x1="151.89" y1="23.82" x2="161.09" y2="23.83"/>
        <polygon class="uuid-613b64a1-687c-4754-b1b1-e99aa2c9593e" points="151.89 23.93 151.89 23.72 161.09 23.73 161.09 23.93 151.89 23.93 151.89 23.93"/>
      </g>
    </g>
    <g>
      <g>
        <path class="uuid-21ec3ba7-fe09-4aee-90c2-8887522f373b" d="m150.48,15.42c3.91-.02,8.52,1.03,8.52,1.03l.51-1.9s-4.89-1.27-8.97-1.27c-4.54,0-9.33,1.22-9.33,1.22l.51,1.92s4.47-.97,8.76-1Z"/>
        <path class="uuid-613b64a1-687c-4754-b1b1-e99aa2c9593e" d="m158.98,16.55s-.28-.07-.76-.16h0c-.48-.1-1.16-.22-1.97-.35h0c-1.61-.26-3.7-.51-5.63-.51h0s-.09,0-.14,0h0v-.1.1c-3.21.02-6.52.57-7.98.85h0c-.48.09-.76.15-.76.15h0l-.1.02-.56-2.12.1-.03s4.8-1.23,9.36-1.23h0c4.1,0,8.99,1.27,9,1.27h0l.1.03-.56,2.1-.1-.02h0Zm-.05-.22l.46-1.71c-.13-.03-.38-.09-.72-.17h0c-.52-.12-1.26-.28-2.12-.43h0c-1.73-.32-3.97-.63-6-.63h0c-3.39,0-6.93.69-8.49,1.03h0c-.34.07-.59.13-.72.17h0l.46,1.73c.67-.14,4.75-.96,8.69-.98h0s.09,0,.14,0h0c3.56,0,7.64.86,8.31,1.01h0Z"/>
      </g>
      <g>
        <path class="uuid-21ec3ba7-fe09-4aee-90c2-8887522f373b" d="m150.39,12.92c-4.04-.01-9.19,1.16-9.19,1.16-.1.03-.27.1-.32-.12-.03-.16.09-.25.22-.28h.02s4.79-1.18,9.29-1.18c4.16,0,9.36,1.16,9.36,1.16,0,0,.16.07.12.24-.03.16-.14.18-.24.16,0,0-5.46-1.12-9.28-1.13Z"/>
        <path class="uuid-613b64a1-687c-4754-b1b1-e99aa2c9593e" d="m140.82,13.98s0-.04,0-.06h0c0-.17.15-.27.28-.3h.01s0,0,0,0c0,0,4.8-1.18,9.31-1.18h0c4.17,0,9.36,1.16,9.37,1.16h0s0,0,0,0c0,0,.16.07.17.26h0s0,.04,0,.06h0c-.03.15-.15.23-.25.22h0s-.05,0-.07,0h0s-.34-.07-.91-.17h0c-.57-.11-1.37-.24-2.29-.38h0c-1.84-.28-4.16-.56-6.06-.57h0v-.07s0-.07,0-.07c3.83.01,9.29,1.13,9.29,1.13h0s.03,0,.04,0h0c.06,0,.09-.01.12-.11h0s0-.02,0-.03h0c0-.06-.05-.11-.08-.12h0s0,0,0,0h0c-.05-.01-.37-.08-.87-.18h0c-.55-.11-1.33-.25-2.24-.4h0c-1.81-.29-4.15-.58-6.23-.58h0c-3.37,0-6.9.66-8.46.99h0c-.49.1-.78.17-.81.18h-.02s0,0,0,0c-.1.02-.18.09-.18.17h0s0,.02,0,.04h0c.03.1.05.1.09.1h0s.09-.02.14-.03h0s5.1-1.16,9.14-1.16h0s.04,0,.06,0h0v.14h-.06c-3.02,0-6.64.65-8.26.98h0c-.54.11-.85.18-.85.18h0s-.1.03-.17.04h-.01c-.09,0-.19-.07-.21-.21h0Z"/>
      </g>
      <g>
        <path class="uuid-709101e0-629a-4975-9b65-c4b046f4019e" d="m160.62,10.91c-.07-.03.44.11.68-.34.16-.3.11-.64-.1-.75"/>
        <path class="uuid-613b64a1-687c-4754-b1b1-e99aa2c9593e" d="m160.71,11.01s-.07,0-.08,0h0v-.09s-.05.09-.05.09c0,0,0,0-.02-.01h0s-.04-.01-.04-.08h0s.04-.08.05-.09h0s.03-.01.03-.01h0s.02,0,.02,0h0s.05,0,.08,0h0c.14,0,.37-.03.51-.28h0c.06-.11.08-.22.08-.32h0c0-.15-.06-.26-.14-.3h0l.1-.18c.17.09.25.28.25.48h0c0,.13-.04.28-.11.41h0c-.18.35-.51.39-.67.39h-.01Zm.01-.1h-.1.1Z"/>
      </g>
      <g>
        <path class="uuid-709101e0-629a-4975-9b65-c4b046f4019e" d="m138.81,9.82c-.18.17-.13.51.1.76.23.25.57.32.75.15"/>
        <path class="uuid-613b64a1-687c-4754-b1b1-e99aa2c9593e" d="m139.41,10.92c-.2,0-.41-.1-.57-.28h0c-.15-.16-.24-.36-.24-.55h0c0-.13.04-.26.14-.35h0l.14.15s-.08.12-.08.2h0c0,.12.06.28.18.41h0c.13.14.29.21.42.21h0c.07,0,.13-.02.18-.06h0l.14.15c-.09.08-.2.12-.32.12h0Z"/>
      </g>
      <g>
        <path class="uuid-21ec3ba7-fe09-4aee-90c2-8887522f373b" d="m156.43,11.59c-.03-.15,0-.4.18-.5.26-.13.57,0,.78.21.01-.22,0-.42-.06-.63.49.09,1-.21,1.16-.67-.11-.02-.25-.02-.34-.11-.06-.07-.07-.16.01-.2.33-.17.74-.4.8-.8-.32-.01-.66,0-.95-.17.28-.42.76-.8.72-1.35-.21.03-.41.11-.62.15.02-.01.05-.03.06-.05.04-.06.08-.11.09-.17.12-.4.07-.83-.16-1.17-.59.14-.93.76-1.4,1-.18.1-.47-.33-.56-.62-.32.34-.13.87-.13,1.29-.38-.15-.67-.42-.91-.75-.01-.01-.05,0-.05,0-.03.13-.07.23-.1.34-.07.23-.01.46,0,.68-.34-.02-.68.21-.67.57.24-.02.5-.02.73.07-.36.27-.86.62-.82,1.13.42-.01,1.02-.07,1.21.38.14.35-.05.81-.42.92-.52.16-1.19.03-1.5-.48l-.13.06c-.49.37-1.18.6-1.82.43-.18-.05-.35-.19-.4-.39-.07-.29.13-.53.37-.66.52-.31,1.27-.49,1.76-.06.1-.36-.11-.75-.43-.93,0-.01-.06-.01-.06-.02.33-.19.75-.26,1.1-.18-.17-.36-.71-.41-.93-.67-.13-.17.14-.51,0-.75-.08.45-.74.69-1.06.44-.5-.38.19-1.2.32-1.31-.35-.24-.47-.16-.82,0l-.12.09c.01-.06.22-1.17-.64-1.17-.8,0-.61,1.11-.6,1.16v.04c-.31-.22-.85-.33-1.21-.1.12.11.79.96.27,1.32-.33.23-.98-.02-1.05-.48-.16.24.1.59-.03.75-.23.25-.78.28-.96.64.35-.07.79,0,1.11.21,0,.01-.06.02-.06.03-.33.17-.57.55-.48.91.5-.41,1.24-.21,1.76.12.23.14.42.39.34.67-.06.19-.23.33-.41.38-.64.15-1.32-.1-1.8-.49l-.28-.24c-.09.28-.17.6-.43.77-.32.23-.62.38-.98.23-.21-.09-.33-.39-.25-.58.07-.21.26-.32.4-.49.23-.3.25-.71.3-1.06-.14.03-.34.05-.46-.02.42-.35.19-1.03.06-1.48-.2.16-.51.21-.73.07-.07-.04,0-.18.03-.27.09-.26.21-.77.11-.88-.1-.11-.5.32-.67.22-.15-.08-.15-.55-.34-.6-.06.23.05.5-.14.68-.01-.08-.06-.17-.1-.22-.23-.24-.55-.27-.72-.56l-.04-.13c-.05.08-.12.14-.16.22-.13.22-.01.48-.06.72-.08-.15-.24-.13-.39-.17-.02-.01-.08-.02-.09-.07,0,.32-.02.71.2.97,0,0-.02.03,0,.06.07.1.17.21.17.27.01.24-.39.23-.6.23.1.14.14.31.24.44.09.12.33.31.33.31l-.24.14c-.23.13-.18.26-.26.49-.02.06-.17.22-.14.22.18-.02.35.25.56.36.17.09.34.1.54.09-.05.2-.16.41-.39.44.27.32.78.03,1.11.25.23.15.06.63-.21.69-.49.13-1.03-.18-1.35-.55h-.02c.01.59-.56,1.2-1.09,1.04-.06,0-.29-.24-.24-.3.23-.31.19-.58.24-.87.01-.07.31-.23.11-.24-.18-.01-.47-.52-.9-.55-.02-.42.88-.48.86-.54-.43-.82-1.34-.4-1.34-.4.44-.34.1-.63.12-.9-.17.19-.36.41-.64.47h-.03c-.19-.15-.1-.41.01-.56.27-.33.5-.76.35-1.16-.06.23-.16.43-.32.61-.1.1-.26.16-.4.11-.15-.06-.17-.26-.23-.41-.17-.51-1.03-.77-1.29-.71.05.04.55.59.74.94.05.1.1.18.11.27.13.81.04,1.44.55,2.01.31.35.62.66.87,1.04.08.13.14.25.2.38.07.15.14.3.15.46.02.39.12.76.36,1.05.41.48,1.19.47,1.72.11.25-.16.31-.42.35-.71,0,0,.59.74,1.31.59.48-.1.74-.67.92-.98.43.48,1.24.72,1.8.41.33-.17.63-.44.8-.79.37.38.84.85,1.55.77.6-.07.95-.55,1.3-.91l.11.17c.27.42.63.69,1.1.73.67.07,1.45-.14,1.85-.7.18.52.68.88,1.23.95.46.07.93-.08,1.23-.43.24.36.51.72.97.81.46.09.95-.06,1.26-.38,0,0,.21.37.33.49.35.34.8.35,1.2.17.59-.27.72-.9.81-1.53.09-.68.1-1.38.55-1.93.32-.4.75-.68.92-1.16.15-.44.31-.93.72-1.21-.54-.09-1.09.18-1.43.6-.17-.25-.57-.44-.87-.28.26.17.4.47.3.78-.06.15-.22.14-.34.09-.15-.05-.19-.21-.24-.34-.3.2-.21.63-.08.91.01.05.02.13.01.13-.23.01-.49.1-.56.41-.16.74.49.64.38.8-.12.17-.44.23-.47.46.37.01.59.36.64.66.06.38-.23.65-.52.76-.62.24-1.36-.32-1.14-1.02,0,0-.07.09-.26.29-.21.22-1.52.61-1.69-.19Z"/>
        <path class="uuid-613b64a1-687c-4754-b1b1-e99aa2c9593e" d="m158.46,13.27c-.08-.08-.16-.2-.23-.31h0s-.04-.06-.05-.09h0c-.27.22-.62.34-.97.35h0c-.1,0-.2,0-.29-.03h0c-.46-.09-.73-.41-.96-.75h0c-.27.26-.63.39-1,.39h0c-.08,0-.15,0-.23-.02h0c-.52-.07-1.01-.38-1.24-.85h0c-.39.43-1,.61-1.57.61h0c-.09,0-.17,0-.26-.01h0c-.52-.04-.9-.34-1.18-.77h0l-.04-.06c-.32.34-.68.78-1.27.85h0c-.06,0-.11,0-.17,0h0c-.61,0-1.05-.38-1.37-.71h0c-.19.31-.47.55-.77.71h0c-.19.1-.4.15-.62.15h0c-.44,0-.89-.19-1.21-.48h0c-.18.31-.44.81-.92.91h0c-.07.02-.14.02-.21.02h0c-.48,0-.86-.31-1.05-.5h0c-.05.22-.14.43-.36.57h0c-.27.18-.59.27-.91.27h0c-.36,0-.71-.13-.95-.41h0c-.26-.31-.36-.71-.39-1.11h0c0-.13-.07-.27-.14-.42h0c-.07-.13-.12-.25-.2-.37h0c-.24-.37-.55-.67-.86-1.03h0c-.55-.61-.44-1.28-.58-2.06h0c-.01-.07-.05-.15-.1-.24h0c-.09-.16-.26-.39-.41-.57h0c-.15-.18-.3-.33-.31-.34h0l-.15-.13.19-.05s.08-.01.12-.01h0c.19,0,.45.07.71.2h0c.25.13.49.32.58.59h0c.03.08.05.17.08.24h0c.03.07.05.1.09.11h0s.04,0,.06,0h0c.08,0,.16-.04.22-.1h0c.15-.17.24-.36.29-.57h0l.08-.32.12.31c.04.1.05.2.05.3h0c0,.36-.2.7-.42.96h0c-.06.07-.1.18-.1.26h0c0,.05.01.09.05.12h0c.22-.06.39-.24.55-.43h0l.21-.24-.03.32s0,.01,0,.02h0c0,.11.1.28.11.49h0c0,.06-.01.13-.04.19h0c.07-.01.15-.02.23-.02h0c.3,0,.68.12.91.56h0s.01.03.01.05h0c0,.06-.04.08-.05.09h0s-.03.02-.04.02h0s-.04.01-.07.02h0c-.05.01-.12.03-.19.05h0c-.15.04-.32.1-.41.18h0s-.06.06-.08.09h0c.17.04.32.14.44.24h0c.14.12.26.25.33.28h0s.03.01.03.01h0s.06,0,.09.02h0s.07.06.07.11h0c0,.06-.03.08-.05.11h0s-.04.04-.06.06h0s-.07.06-.08.07h0c-.04.25,0,.54-.23.86h0s0,0,0,0h0s.03.05.06.07h0s.09.09.11.1h0s.1.02.15.02h0c.2,0,.4-.11.56-.3h0c.16-.18.26-.42.26-.65h0v-.02h0v-.08s.16-.04.16-.04l.04.05c.25.29.66.54,1.04.54h0c.07,0,.14,0,.2-.03h0c.05-.01.12-.06.16-.14h0c.05-.07.07-.16.07-.23h0c0-.07-.02-.11-.06-.14h0c-.09-.06-.21-.07-.34-.07h0c-.08,0-.16,0-.24,0h0c-.18,0-.39-.02-.54-.2h0l-.12-.14.18-.03c.09-.01.15-.05.2-.12h0s.05-.07.07-.12h0c-.15,0-.3-.03-.45-.11h0c-.12-.07-.21-.16-.29-.24h0c-.08-.08-.16-.12-.19-.12h0s0,0,0,0h-.02s-.05,0-.07-.03h0s-.03-.06-.03-.08h0s0-.05.01-.06h0s.01-.02.02-.03h0s.03-.04.04-.05h0s.06-.08.07-.1h0s0,0,0,0h0c.04-.1.04-.18.07-.28h0c.03-.1.1-.2.23-.26h0l.11-.06c-.08-.06-.17-.15-.23-.23h0c-.12-.16-.15-.33-.24-.44h0l-.12-.16h.26c.16,0,.38-.02.42-.07h0s.02-.02.02-.05h0s0-.01,0-.02h0s-.02-.03-.03-.06h0s-.07-.09-.11-.15h0s0-.01,0-.01c0-.02-.01-.04-.01-.06h0s0-.01,0-.02h0c-.18-.25-.19-.56-.19-.83h0c0-.06,0-.11,0-.17h0l.17-.02.02-.02h0s.02,0,.04.01h0c.06.02.13.03.21.04h0s.03,0,.05.02h0c0-.08-.01-.16-.01-.24h0c0-.1.01-.21.07-.31h0c.05-.1.12-.16.16-.23h0l.12-.18.09.33c.07.11.17.18.29.25h0c.13.07.27.14.4.28h0s.02.03.04.04h0s0-.1,0-.16h0v-.04h0c0-.08,0-.17.02-.26h0l.03-.1.1.03c.13.04.18.16.22.26h0c.04.1.07.21.1.28h0c.02.05.04.07.04.07h0s0,0,0,0h0s.09-.02.17-.07h0c.07-.04.15-.1.23-.13h0c.05-.02.1-.05.16-.05h0s.09.01.12.05h0c.06.07.06.14.06.22h0c0,.22-.08.55-.15.76h0c-.02.06-.05.13-.06.16h0c.06.04.14.05.22.05h0c.13,0,.27-.05.37-.13h0l.12-.09.04.14c.08.26.19.6.19.92h0c0,.19-.04.38-.15.54h0s.03,0,.04,0h0c.07,0,.14,0,.2-.02h0l.15-.04-.02.15c-.05.35-.06.78-.32,1.11h0c-.16.19-.33.3-.38.46h0s0,0,0,0c-.01.03-.02.06-.02.09h0c0,.13.1.31.21.36h0c.09.04.17.05.25.05h0c.2,0,.4-.11.63-.27h0c.22-.14.3-.43.39-.72h0l.05-.14.4.33c.37.3.86.51,1.35.51h0c.12,0,.24-.01.36-.04h0c.15-.04.29-.15.34-.3h0s.01-.07.01-.1h0c0-.18-.14-.35-.31-.46h0c-.3-.19-.68-.34-1.02-.34h0c-.23,0-.44.06-.61.21h0l-.12.1-.04-.16c-.02-.06-.02-.12-.02-.18h0c0-.32.19-.61.46-.78h0c-.19-.09-.42-.13-.63-.13h0c-.09,0-.18,0-.26.02h0l-.21.04.1-.19c.11-.21.32-.32.51-.4h0c.19-.09.38-.16.46-.25h0s.02-.03.02-.07h0c0-.09-.06-.25-.06-.42h0c0-.08.02-.17.07-.25h0l.15-.22.04.26c.03.27.36.48.64.48h0c.1,0,.18-.02.24-.07h0c.11-.08.15-.17.15-.3h0c0-.16-.08-.37-.18-.53h0c-.1-.17-.22-.31-.25-.33h0l-.1-.09.11-.07c.16-.1.34-.14.53-.14h0c.22,0,.43.05.62.14h0s0-.11,0-.17h0c0-.18.02-.41.12-.6h0c.1-.2.3-.35.6-.35h0c.31,0,.53.14.64.34h0c.11.19.14.41.14.6h0s0,.09,0,.13h0c.17-.08.29-.14.44-.15h0c.14,0,.27.06.43.17h0l.11.08-.1.09s-.16.17-.27.33h0c-.11.17-.2.37-.2.53h0c0,.11.04.21.14.29h0c.07.05.16.08.26.08h0c.28,0,.6-.2.64-.46h0l.05-.26.14.23c.05.07.06.16.06.23h0c0,.19-.08.36-.07.45h0s0,.05.01.06h0c.08.1.26.18.45.27h0c.19.09.39.2.49.42h0l.09.19-.21-.05c-.09-.02-.19-.03-.29-.03h0c-.19,0-.39.04-.57.11h0c.24.18.4.46.4.76h0c0,.07,0,.14-.03.22h0l-.04.16-.12-.11c-.18-.16-.41-.23-.65-.23h0c-.33,0-.7.13-.99.3h0c-.18.1-.33.27-.33.45h0s0,.06,0,.09h0c.04.15.18.28.33.32h0c.14.04.28.06.42.06h0c.47,0,.95-.19,1.31-.46h0s.22-.12.22-.12l.05.08c.21.34.59.5.98.5h0c.14,0,.28-.02.41-.06h0c.23-.07.39-.33.39-.58h0c0-.07-.01-.14-.04-.2h0c-.05-.14-.15-.21-.29-.26h0c-.14-.05-.31-.06-.48-.06h0c-.11,0-.23,0-.34,0h-.1s0-.09,0-.09c0-.03,0-.05,0-.07h0c0-.27.14-.5.31-.68h0c.12-.13.26-.24.39-.34h0c-.08-.02-.17-.02-.26-.02h0c-.08,0-.16,0-.24.01h-.11s0-.1,0-.1v-.02h0c0-.2.09-.37.23-.48h0c.12-.1.27-.16.43-.17h0c-.01-.11-.02-.22-.02-.33h0c0-.09,0-.18.04-.28h0c.04-.12.07-.22.1-.34h0v-.05s.06-.02.06-.02c0,0,.02,0,.06-.01h0s.05,0,.09.04h0s0,.01,0,.01c.2.27.43.5.72.65h0c-.02-.18-.05-.38-.05-.58h0c0-.21.04-.44.21-.62h0l.12-.13.05.17c.04.11.11.27.2.38h0c.08.12.19.19.2.18h0s0,0,.01,0h0c.21-.11.41-.32.63-.52h0c.22-.21.47-.41.8-.49h0l.07-.02.04.06c.16.24.24.52.24.81h0c0,.15-.02.3-.06.45h0s0,.02,0,.03h0c.12-.03.24-.07.36-.09h0l.11-.02v.11s.01.05.01.08h0c0,.52-.41.88-.67,1.23h0c.23.1.52.1.8.11h.12s-.02.12-.02.12c-.03.23-.17.41-.33.55h0c-.16.14-.36.24-.52.33h0s0,.02.02.04h0c.05.05.16.06.29.08h0l.12.02-.04.11c-.16.46-.61.76-1.08.76h0s-.03,0-.05,0h0c.02.12.03.24.03.36h0c0,.05,0,.1,0,.15h0v.23s-.18-.16-.18-.16c-.13-.13-.32-.23-.48-.23h0c-.06,0-.12.01-.18.04h0c-.09.04-.14.18-.14.3h0s0,.06,0,.08h0l-.1.02-.1.02s-.01-.08-.01-.13h0c0-.17.06-.38.25-.48h0c.09-.05.18-.07.27-.07h0c.16,0,.32.06.45.15h0c0-.13-.02-.26-.05-.39h0l-.04-.16.16.03c.05,0,.11.01.16.01h0c.34,0,.68-.2.84-.51h0c-.09-.01-.18-.04-.27-.12h0s0,0,0,0c-.04-.05-.07-.11-.07-.18h0c0-.07.04-.15.12-.18h0c.16-.08.34-.18.48-.3h0c.11-.09.19-.19.23-.31h0c-.28,0-.59-.02-.87-.18h0l-.09-.06.06-.09c.28-.4.68-.74.7-1.16h0c-.16.04-.32.09-.5.12h0l-.06-.19s.01,0,.02-.02h0c.04-.06.07-.11.07-.13h0s0,0,0,0c.04-.13.06-.26.06-.4h0c0-.22-.05-.44-.17-.63h0c-.24.07-.43.23-.63.42h0c-.21.2-.42.42-.67.55h0s-.07.03-.11.03h0c-.16,0-.27-.13-.37-.26h0c-.06-.08-.11-.17-.15-.25h0c-.04.1-.06.21-.06.33h0c0,.23.06.49.06.74h0v.15l-.14-.06c-.35-.14-.63-.38-.87-.67h0c-.02.06-.04.13-.06.19h0c-.02.07-.03.14-.03.22h0c0,.13.03.28.03.43h0v.12s-.11,0-.11,0c-.01,0-.03,0-.04,0h0c-.14,0-.27.05-.37.13h0c-.07.06-.12.14-.15.23h0s.09,0,.13,0h0c.17,0,.35.02.52.09h0l.17.07-.15.11c-.18.13-.38.28-.53.44h0c-.14.15-.24.32-.25.5h0c.08,0,.16,0,.24,0h0c.18,0,.38.01.55.07h0c.17.06.33.18.41.38h0c.04.09.05.19.05.28h0c0,.33-.2.67-.54.78h0c-.15.05-.31.07-.47.07h0c-.41,0-.84-.16-1.1-.52h0l-.04.02c-.39.29-.9.5-1.42.5h0c-.16,0-.32-.02-.48-.06h0c-.21-.06-.41-.23-.47-.46h0s-.02-.09-.02-.14h0c0-.29.21-.51.43-.63h0c.32-.19.71-.33,1.09-.33h0c.22,0,.45.05.64.17h0c0-.26-.17-.52-.41-.65h-.01s-.03-.01-.03-.01c0,0-.01,0-.02-.01h0s-.04-.04-.04-.09h0s0-.02.02-.06h0s.02-.02.03-.03h0c.25-.15.55-.23.84-.23h0s.04,0,.07,0h0c-.07-.06-.16-.1-.25-.15h0c-.18-.09-.38-.17-.52-.33h0c-.04-.06-.06-.12-.06-.18h0c0-.09.03-.18.05-.26h0c-.17.17-.42.27-.66.27h0c-.14,0-.27-.04-.39-.12h0c-.15-.12-.22-.28-.22-.45h0c0-.23.11-.46.23-.64h0c.07-.12.15-.21.21-.28h0c-.09-.05-.16-.07-.21-.07h0c-.09,0-.21.05-.4.14h0l-.34.24.06-.26s.03-.15.03-.31h0c0-.16-.03-.35-.11-.49h0c-.08-.14-.2-.23-.45-.23h0c-.23,0-.34.1-.43.24h0c-.08.14-.1.34-.1.5h0c0,.16.02.28.02.29h0l.06.3-.21-.15c-.18-.12-.44-.21-.69-.21h0c-.11,0-.21.02-.31.05h0c.06.07.12.16.19.27h0c.11.19.21.41.21.64h0c0,.17-.07.35-.24.46h0c-.11.07-.23.11-.36.11h0c-.24,0-.5-.11-.67-.3h0c.02.08.04.16.04.25h0c0,.06-.01.14-.07.2h0c-.14.15-.35.22-.53.31h0c-.09.04-.18.08-.25.14h.02c.31,0,.63.08.89.25h0l.05.03v.06c0,.07-.04.08-.05.09h0s-.02,0-.03.01h0l-.04.02c-.25.13-.44.39-.45.64h0c.18-.11.39-.15.6-.15h0c.4,0,.81.16,1.13.37h0c.21.13.41.35.41.63h0c0,.05,0,.11-.02.16h0c-.07.24-.27.39-.49.45h0c-.13.03-.27.05-.41.05h0c-.55,0-1.08-.23-1.48-.56h0l-.17-.14c-.08.25-.17.51-.42.68h0c-.24.17-.47.31-.75.31h0c-.11,0-.22-.02-.33-.07h0c-.21-.1-.33-.32-.34-.54h0c0-.06,0-.11.03-.17h0c.09-.25.3-.36.41-.52h0c.18-.23.22-.55.26-.87h0s-.07,0-.1,0h0c-.1,0-.2-.01-.29-.06h0l-.12-.07.11-.09c.15-.13.2-.3.2-.51h0c0-.23-.07-.5-.14-.73h0c-.11.06-.24.09-.37.09h0c-.12,0-.24-.03-.35-.09h0c-.06-.03-.08-.11-.08-.15h0c0-.1.05-.19.07-.25h0c.06-.18.14-.52.14-.69h0s0-.05,0-.06h0s-.03.01-.05.02h0s-.09.05-.14.08h0c-.11.06-.22.14-.35.14h0s-.08,0-.11-.03h0c-.11-.07-.13-.17-.17-.27h0s-.03-.09-.04-.13h0c0,.14,0,.32-.15.46h0l-.14.15-.03-.2c0-.05-.05-.14-.08-.16h0c-.1-.1-.22-.17-.36-.24h0c-.12-.07-.26-.16-.36-.3h0s-.02.03-.03.05h0s0,.01,0,.01c-.04.06-.05.13-.05.22h0c0,.09.02.2.02.31h0c0,.05,0,.1-.01.15h0l-.05.29-.14-.25s-.05-.06-.1-.07h0s-.11-.02-.18-.04h0c0,.27.02.55.18.73h0s0,.02,0,.02c0,.02.01.04.01.05h0s0,.02,0,.03h0s.06.08.09.11h0c.04.05.07.1.08.18h0c0,.09-.04.17-.09.21h0c-.05.05-.11.07-.18.09h0c-.08.02-.18.03-.26.03h0c.05.11.09.21.14.28h0s.12.13.18.18h0c.07.06.13.1.13.1h0l.12.09-.37.21c-.1.06-.12.09-.14.15h0c-.02.06-.03.16-.08.28h0s0,0,0,0c-.02.04-.04.07-.07.11h0c.07.03.13.08.19.13h0c.09.08.18.17.26.21h0c.12.06.23.08.37.08h0s.07,0,.11,0h.13s-.03.13-.03.13c-.02.11-.07.23-.14.33h0s-.08.09-.13.12h0c.07.03.15.03.25.03h0c.08,0,.16,0,.24,0h0c.15,0,.31.01.45.11h0c.11.07.15.2.15.31h0c0,.12-.04.24-.1.35h0c-.07.1-.16.19-.28.22h0c-.08.02-.17.03-.26.03h0c-.39,0-.77-.21-1.05-.46h0c-.04.22-.15.42-.29.59h0c-.18.21-.44.37-.71.37h0c-.07,0-.14,0-.2-.03h0s-.05-.02-.07-.04h0s-.04-.04-.07-.06h0s-.09-.1-.13-.15h0s-.05-.07-.05-.13h0s0-.06.03-.08h0c.21-.28.17-.51.22-.82h0c.01-.05.03-.07.05-.09h0s.04-.04.06-.06h0s-.08-.05-.12-.08h0c-.06-.05-.13-.12-.2-.18h0c-.14-.13-.31-.24-.48-.25h-.09s0-.1,0-.1c0,0,0-.01,0-.02h0c0-.19.14-.32.28-.4h0c.15-.08.32-.13.44-.16h0s.06-.01.08-.02h0c-.19-.28-.44-.35-.67-.35h0c-.2,0-.37.06-.44.08h0s-.04.02-.04.02h0l-.1-.17c.16-.13.19-.21.19-.3h0c0-.08-.04-.18-.07-.29h0c-.14.15-.32.29-.55.34h-.03s-.03,0-.03,0l-.05-.02h-.01c-.11-.08-.16-.2-.16-.31h0c0-.15.07-.29.15-.39h0c.16-.19.29-.41.35-.63h0c-.05.08-.1.15-.16.22h0s0,0,0,0c-.1.1-.23.16-.37.16h0s-.09,0-.13-.02h0c-.11-.05-.17-.14-.21-.23h0c-.03-.09-.05-.18-.08-.24h0s0,0,0,0c-.06-.19-.25-.36-.48-.47h0c-.16-.08-.33-.14-.47-.16h0c.05.05.1.11.16.18h0c.16.19.33.42.43.61h0c.05.1.1.19.12.31h0c.13.83.05,1.43.53,1.96h0c.3.35.62.65.88,1.05h0c.08.13.14.26.21.38h0s0,0,0,0c.07.15.14.31.16.49h0c.02.37.12.73.34.99h0c.19.23.48.33.79.33h0c.27,0,.56-.08.79-.24h0c.21-.13.26-.35.31-.64h0l.04-.23.14.18s0,0,.02.02h0s.03.04.06.07h0c.05.05.13.13.23.2h0c.19.15.45.29.73.29h0c.06,0,.11,0,.17-.02h0c.41-.08.67-.61.86-.93h0l.07-.12.09.1c.28.31.73.52,1.16.51h0c.19,0,.36-.04.52-.13h0c.31-.16.59-.42.75-.74h0l.06-.13.1.1c.34.35.75.75,1.32.75h0s.09,0,.14,0h0c.54-.06.88-.51,1.24-.88h0l.09-.09.18.28c.27.41.59.65,1.03.68h0c.08,0,.16.01.24.01h0c.58,0,1.19-.21,1.51-.66h0l.12-.16.07.19c.17.48.63.81,1.15.88h0c.07,0,.14.01.2.01h0c.36,0,.71-.14.94-.41h0l.09-.11.08.11c.24.36.5.68.9.77h0c.08.02.17.02.25.02h0c.34,0,.69-.14.92-.37h0l.1-.1.07.12s.05.09.12.2h0c.06.1.15.22.2.27h0c.19.18.4.25.62.25h0c.16,0,.31-.04.47-.11h0c.27-.13.43-.33.54-.58h0c.11-.25.16-.56.21-.87h0c.09-.67.1-1.39.57-1.98h0c.33-.41.75-.7.9-1.13h0c.13-.37.26-.79.55-1.09h0c-.42.01-.82.24-1.09.57h0l-.09.11-.08-.11c-.1-.16-.33-.3-.53-.29h0s-.03,0-.04,0h0c.14.14.22.33.22.53h0c0,.08,0,.16-.04.24h0s0,0,0,0c-.05.13-.18.19-.29.19h0c-.06,0-.13-.02-.18-.04h0c-.1-.03-.17-.11-.21-.18h0s-.02-.04-.03-.07h0c-.04.06-.05.14-.05.23h0c0,.15.05.32.11.45h0s0,.02,0,.02c0,.04.02.09.02.13h0s0,.02-.02.08h0s-.04.04-.08.04h0c-.1,0-.21.03-.29.08h0c-.08.05-.14.12-.17.25h0c-.02.08-.02.14-.02.2h0c0,.13.04.2.08.25h0c.04.05.11.09.17.12h0s.08.03.12.07h0s.05.06.05.11h0s-.01.07-.03.09h0c-.09.11-.21.17-.3.23h0s-.08.06-.1.08h0c.15.04.27.13.37.24h0c.12.14.2.32.22.49h0s0,.07,0,.11h0c0,.39-.3.65-.6.76h0c-.11.04-.23.06-.34.06h0c-.49,0-.95-.36-.98-.87h0s-.03.04-.05.05h0c-.09.08-.23.15-.42.22h0c-.18.06-.4.11-.62.11h0c-.18,0-.36-.03-.51-.12h0c-.15-.09-.27-.24-.32-.44h0l.1-.02.1-.02c.04.15.11.24.22.31h0c.11.06.25.09.41.09h0c.19,0,.39-.04.56-.09h0c.17-.05.3-.13.33-.16h0c.1-.1.16-.17.2-.21h0s.05-.06.05-.06h0l.18.1c-.02.08-.03.15-.03.22h0c0,.2.09.38.23.51h0c.15.13.34.21.54.21h0c.09,0,.18-.01.26-.05h0c.25-.1.47-.31.47-.57h0s0-.05,0-.08h0c-.02-.13-.08-.28-.18-.39h0c-.1-.11-.21-.18-.36-.19h-.11s0-.11,0-.11c.02-.17.14-.26.24-.33h0c.08-.05.16-.1.21-.14h0s-.08-.04-.13-.07h0c-.12-.07-.26-.23-.25-.49h0c0-.07,0-.15.03-.24h0c.04-.18.14-.31.26-.38h0c.09-.05.19-.08.29-.1h0c-.07-.15-.12-.34-.12-.53h0c0-.18.06-.38.24-.5h0l.11-.08.04.13c.02.07.05.14.07.19h0s.05.08.1.09h0s0,0,0,0c.04.02.09.02.12.02h0c.06,0,.07,0,.09-.06h0c.02-.06.03-.12.03-.17h0c0-.19-.11-.37-.28-.49h0l-.14-.09.14-.08c.1-.05.2-.08.3-.08h0c.24,0,.47.12.62.28h0c.31-.34.75-.56,1.22-.56h0c.07,0,.15,0,.22.02h0l.26.04-.21.14c-.37.25-.53.71-.67,1.16h0c-.19.52-.64.81-.94,1.19h0c-.42.51-.43,1.18-.52,1.88h0c-.05.32-.1.64-.22.92h0c-.12.28-.32.53-.64.68h0c-.18.08-.36.13-.55.13h0c-.26,0-.53-.1-.75-.31h0Zm-5.63-4.09h0s0,0,0,0h0s0,0,0,0h0Z"/>
      </g>
      <g>
        <path class="uuid-709101e0-629a-4975-9b65-c4b046f4019e" d="m144.39,9.54c.24-.05.38-.35.32-.69-.06-.34-.31-.57-.55-.53-.24.05-.38.35-.32.69.06.34.31.57.55.53Z"/>
        <path class="uuid-613b64a1-687c-4754-b1b1-e99aa2c9593e" d="m143.74,9.03c-.01-.06-.02-.12-.02-.18h0c0-.3.15-.58.42-.63h0s.05,0,.08,0h0c.29,0,.53.28.59.62h0c.01.06.02.12.02.18h0c0,.3-.15.58-.42.63h0l-.02-.1.02.1s-.05,0-.08,0h0c-.29,0-.53-.28-.59-.62h0Zm.48-.61s-.03,0-.04,0h0c-.13.02-.25.19-.25.43h0s0,.09.01.14h0c.05.28.24.46.39.45h0s.03,0,.04,0h0c.13-.02.25-.19.25-.43h0s0-.09-.01-.14h0c-.05-.27-.24-.45-.38-.45h0Z"/>
      </g>
      <g>
        <path class="uuid-709101e0-629a-4975-9b65-c4b046f4019e" d="m150.46,9.13c.24,0,.44-.28.44-.62,0-.34-.2-.62-.45-.62-.24,0-.44.28-.44.62,0,.34.2.62.45.62Z"/>
        <path class="uuid-613b64a1-687c-4754-b1b1-e99aa2c9593e" d="m150.45,9.23c-.16,0-.3-.09-.39-.22h0c-.09-.13-.15-.3-.15-.49h0s0,0,0,0h0c0-.19.05-.36.15-.5h0c.09-.13.23-.22.39-.23h0c.16,0,.3.09.4.22h0c.09.13.15.31.15.5h0c0,.2-.05.37-.15.5h0c-.09.13-.23.22-.39.23h0Zm0-.1v-.1s0,.1,0,.1h0Zm-.23-1c-.07.09-.11.23-.11.38h0c0,.16.05.29.11.38h0c.07.09.15.14.23.14h0c.08,0,.16-.05.23-.14h0c.07-.09.11-.23.11-.38h0c0-.16-.05-.29-.11-.38h0c-.07-.09-.15-.14-.23-.14h0c-.08,0-.16.05-.23.14h0Z"/>
      </g>
      <g>
        <path class="uuid-709101e0-629a-4975-9b65-c4b046f4019e" d="m151.09,14.37c0-.24-.29-.44-.63-.43-.34,0-.62.21-.61.46,0,.24.29.44.63.43.34,0,.62-.21.61-.46Z"/>
        <path class="uuid-613b64a1-687c-4754-b1b1-e99aa2c9593e" d="m149.97,14.79c-.13-.09-.22-.23-.23-.38h0c0-.17.09-.32.22-.41h0c.13-.09.3-.15.49-.16h0s.02,0,.02,0h0c.19,0,.36.05.49.14h0c.13.09.22.23.23.39h-.1s.1,0,.1,0h0c0,.17-.09.31-.22.4h0c-.13.1-.3.15-.49.16h-.02c-.19,0-.36-.05-.49-.14h0Zm.49-.74c-.15,0-.28.05-.37.12h0c-.09.07-.14.15-.14.23h0s0,0,0,0h0c0,.08.05.16.14.22h0c.09.06.22.11.37.11h.02c.15,0,.28-.05.37-.12h0c.09-.07.14-.15.14-.23h0c0-.08-.05-.16-.14-.23h0c-.09-.06-.22-.11-.37-.11h-.02Z"/>
      </g>
      <g>
        <path class="uuid-709101e0-629a-4975-9b65-c4b046f4019e" d="m156.44,9.53c.23.07.51-.13.61-.46.1-.33,0-.65-.24-.72-.23-.07-.5.13-.61.46-.1.33,0,.65.24.72Z"/>
        <path class="uuid-613b64a1-687c-4754-b1b1-e99aa2c9593e" d="m156.41,9.63l.03-.1-.03.1c-.23-.08-.35-.32-.35-.58h0c0-.09.01-.18.04-.28h0c.1-.31.33-.54.61-.55h0s.09,0,.13.02h0c.23.08.35.32.35.57h0c0,.09-.01.18-.04.28h0c-.1.31-.34.54-.61.55h0s-.08,0-.12-.02h0Zm.12-.19c.14,0,.34-.15.41-.4h0c.02-.07.03-.15.03-.22h0c0-.2-.09-.35-.21-.38h0s-.04,0-.07,0h0c-.14,0-.34.15-.41.4h0c-.02.07-.03.15-.03.22h0c0,.2.09.35.2.38h0s.04.01.07.01h0Z"/>
      </g>
      <g>
        <path class="uuid-709101e0-629a-4975-9b65-c4b046f4019e" d="m146.16,14.96c.28-.05.49-.25.45-.46-.03-.2-.29-.33-.57-.28-.28.05-.48.25-.45.45.03.21.29.33.57.28Z"/>
        <path class="uuid-613b64a1-687c-4754-b1b1-e99aa2c9593e" d="m145.49,14.69s0-.04,0-.06h0c0-.26.25-.46.54-.51h0s.09-.01.14-.01h0c.26,0,.51.13.56.38h0s0,.04,0,.06h0c0,.26-.25.46-.54.51h0l-.02-.1.02.1s-.09.01-.14.01h0c-.26,0-.51-.13-.56-.38h0Zm.57-.37c-.23.04-.37.19-.37.31h0s0,.02,0,.03h0c.01.1.15.21.35.21h0s.07,0,.1,0h0c.23-.04.37-.2.37-.31h0s0-.02,0-.03h0c-.01-.1-.15-.21-.35-.21h0s-.07,0-.1,0h0Z"/>
      </g>
      <g>
        <path class="uuid-709101e0-629a-4975-9b65-c4b046f4019e" d="m154.9,15c.29.04.54-.1.56-.31.03-.2-.18-.4-.47-.44-.28-.04-.54.1-.56.3-.03.21.18.4.47.44Z"/>
        <path class="uuid-613b64a1-687c-4754-b1b1-e99aa2c9593e" d="m154.88,15.1v-.1s.03-.1.03-.1c.03,0,.05,0,.08,0h0c.21,0,.36-.11.37-.22h0v-.02h0c0-.11-.14-.27-.38-.3h0s-.05,0-.08,0h0c-.22,0-.36.11-.37.22h0s0,.02,0,.02h0c0,.12.14.27.38.3h0l-.02.1v.1c-.31-.04-.56-.23-.57-.5h0s0-.03,0-.05h0c.04-.26.3-.4.57-.4h0s.07,0,.11,0h0c.3.04.55.24.56.51h0s0,.03,0,.05h0c-.04.26-.3.4-.57.4h0s-.07,0-.11,0h0Z"/>
      </g>
      <g>
        <path class="uuid-21ec3ba7-fe09-4aee-90c2-8887522f373b" d="m159.16,16.71c.05-.19-.12-.24-.12-.24,0,0-4.4-1.05-8.55-1.05-4.5,0-8.76,1-8.76,1,0,0-.19.08-.14.27.05.21.26.16.26.16,0,0,4.13-1,8.63-1,4.16,0,8.48,1.03,8.48,1.03,0,0,.17.04.22-.17Z"/>
        <path class="uuid-613b64a1-687c-4754-b1b1-e99aa2c9593e" d="m158.97,16.95s-.04,0-.04,0h0s-.27-.06-.74-.16h0c-.47-.1-1.14-.22-1.94-.35h0c-1.59-.26-3.71-.51-5.78-.51h0c-3.37,0-6.53.56-7.9.84h0c-.46.09-.71.16-.71.16h0s-.03,0-.07,0h0c-.08,0-.23-.04-.27-.22h0s0-.05,0-.07h0c0-.1.05-.17.1-.22h0s.09-.06.1-.06h0s0,0,0,0c0,0,4.27-1,8.77-1h.01c4.17,0,8.56,1.05,8.56,1.05h0s.04.02.09.05h0s.09.1.09.19h0s0,.05-.01.08h0l-.07-.02.07.02c-.04.18-.18.23-.25.23h0s0,0,0,0h0Zm0-.14s.09,0,.12-.12h0s0-.03,0-.05h0c0-.07-.04-.09-.07-.11h0s0,0,0,0h0s-.3-.07-.75-.16h0c-.47-.1-1.15-.23-1.96-.36h0c-1.62-.26-3.75-.52-5.82-.52h0c-3.37,0-6.61.56-8.01.84h0c-.42.08-.68.14-.73.15h0s0,0-.01,0h0s-.02.02-.04.03h0s-.05.06-.05.12h0s0,.03,0,.04h0c.03.1.08.11.13.11h0s.02,0,.03,0h0s0,0,0,0h0s4.13-1.01,8.64-1.01h0c4.17,0,8.48,1.03,8.48,1.03h0s0,0,0,0h0s0,0,.01,0h0Z"/>
      </g>
      <g>
        <path class="uuid-21ec3ba7-fe09-4aee-90c2-8887522f373b" d="m159.77,14.06s-5.13-1.14-9.29-1.14c-4.5,0-9.49,1.21-9.49,1.21,0,0-.23.05-.17.27.04.18.27.13.27.13,0,0,.04-.01.12-.03.76-.18,5.1-1.15,9.2-1.16,4.16,0,9.25,1.22,9.25,1.22,0,0,.26.06.31-.19.07-.29-.2-.33-.2-.33Z"/>
        <path class="uuid-613b64a1-687c-4754-b1b1-e99aa2c9593e" d="m159.73,14.65s-.08,0-.08,0h0s-.32-.08-.86-.19h0c-.54-.11-1.31-.27-2.2-.42h0c-1.79-.31-4.1-.61-6.17-.61h0c-4.08,0-8.43.98-9.18,1.15h0c-.08.02-.11.03-.12.03h0s-.04,0-.08,0h0s-.09,0-.15-.03h0c-.05-.03-.1-.08-.12-.16h0s-.01-.06-.01-.09h0c0-.11.06-.18.12-.22h0c.06-.04.11-.05.11-.05h0s4.99-1.21,9.5-1.21h0c4.12,0,9.18,1.11,9.3,1.14h0s.07.01.13.05h0c.07.04.14.13.13.26h0s0,.06-.01.1h0c-.04.2-.2.25-.3.25h-.01Zm0-.14c.07,0,.14-.01.18-.14h0s0-.05,0-.07h0c0-.12-.08-.15-.13-.17h0s-.02,0-.02,0h0v-.07s.03-.07.03-.07l-.02.07v.07h-.01s-.32-.07-.86-.18h0c-.55-.11-1.32-.25-2.22-.39h0c-1.8-.29-4.12-.57-6.19-.57h0c-3.37,0-7.01.68-8.62,1.02h0c-.54.11-.85.19-.85.19h0s0,0-.02,0h0s-.03.01-.05.02h0s-.06.05-.06.11h0s0,.03,0,.05h0s.03.05.05.07h0s.06.02.08.02h0s.03,0,.04,0h0s.01,0,.01,0h0s.04-.01.11-.03h0c.76-.18,5.11-1.16,9.21-1.16h0c4.17,0,9.26,1.23,9.26,1.23h0s.02,0,.05,0h0Z"/>
      </g>
      <g>
        <g>
          <path class="uuid-709101e0-629a-4975-9b65-c4b046f4019e" d="m143.53,15.35c.19-.04.32-.2.29-.36-.03-.16-.21-.27-.4-.23-.19.03-.32.2-.29.36.03.16.21.27.4.23Z"/>
          <path class="uuid-613b64a1-687c-4754-b1b1-e99aa2c9593e" d="m143.05,15.13s0-.04,0-.06h0c0-.2.16-.36.36-.4h0s.06,0,.09,0h0c.19,0,.37.12.41.31h0s0,.04,0,.06h0c0,.2-.16.36-.36.4h0l-.02-.08.02.08s-.06,0-.09,0h0c-.19,0-.37-.12-.41-.31h0Zm.39-.29c-.14.03-.23.13-.22.23h0s0,.02,0,.03h0c.01.1.11.17.24.17h0s.04,0,.06,0h0c.14-.03.23-.13.22-.23h0s0-.02,0-.03h0c-.02-.09-.11-.17-.24-.17h0s-.04,0-.06,0h0Z"/>
        </g>
        <g>
          <path class="uuid-709101e0-629a-4975-9b65-c4b046f4019e" d="m144.67,15.05c.19-.04.32-.2.29-.36-.03-.16-.21-.27-.4-.23-.19.04-.32.2-.29.36.03.16.21.27.4.23Z"/>
          <path class="uuid-613b64a1-687c-4754-b1b1-e99aa2c9593e" d="m144.19,14.83s0-.04,0-.06h0c0-.2.16-.36.36-.4h0s.06,0,.09,0h0c.19,0,.37.12.41.31h0s0,.04,0,.06h0c0,.2-.16.36-.36.4h0l-.02-.08.02.08s-.06,0-.09,0h0c-.19,0-.37-.12-.41-.31h0Zm.39-.29c-.14.03-.23.13-.23.23h0s0,.02,0,.03h0c.02.09.11.17.24.17h0s.04,0,.06,0h0c.14-.03.23-.13.22-.23h0s0-.02,0-.03h0c-.02-.09-.11-.17-.24-.17h0s-.04,0-.06,0h0Z"/>
        </g>
        <g>
          <path class="uuid-709101e0-629a-4975-9b65-c4b046f4019e" d="m144.26,15.71c.19-.03.32-.2.29-.36-.03-.16-.21-.27-.4-.23-.19.04-.32.2-.29.36.03.16.21.27.4.23Z"/>
          <path class="uuid-613b64a1-687c-4754-b1b1-e99aa2c9593e" d="m143.78,15.49s0-.04,0-.06h0c0-.2.16-.36.36-.4h0s.06,0,.09,0h0c.19,0,.37.12.41.31h0s0,.04,0,.06h0c0,.2-.16.36-.36.4h0l-.02-.08.02.08s-.06,0-.09,0h0c-.19,0-.37-.12-.41-.31h0Zm.39-.29c-.14.02-.23.13-.23.23h0s0,.02,0,.03h0c.02.09.11.17.24.17h0s.04,0,.06,0h0c.14-.02.23-.13.22-.23h0s0-.02,0-.03h0c-.02-.09-.11-.17-.24-.17h0s-.04,0-.06,0h0Z"/>
        </g>
        <g>
          <path class="uuid-709101e0-629a-4975-9b65-c4b046f4019e" d="m144.01,14.82c.19-.04.32-.2.29-.36-.03-.16-.21-.27-.4-.23-.19.03-.32.2-.29.36.03.16.21.27.4.23Z"/>
          <path class="uuid-613b64a1-687c-4754-b1b1-e99aa2c9593e" d="m143.52,14.61s0-.04,0-.06h0c0-.2.16-.36.36-.4h0s.06,0,.09,0h0c.19,0,.37.12.41.31h0s0,.04,0,.06h0c0,.19-.16.36-.36.4h0l-.02-.08.02.08s-.06,0-.09,0h0c-.19,0-.37-.12-.41-.31h0Zm.39-.29c-.14.03-.23.13-.22.23h0s0,.02,0,.03h0c.02.09.11.17.24.17h0s.04,0,.06,0h0c.14-.03.23-.13.23-.23h0s0-.02,0-.03h0c-.02-.1-.11-.17-.24-.17h0s-.04,0-.06,0h0Z"/>
        </g>
      </g>
      <g>
        <g>
          <path class="uuid-709101e0-629a-4975-9b65-c4b046f4019e" d="m156.28,15.15c.19.05.37-.05.41-.21.04-.16-.08-.33-.27-.38-.19-.05-.37.05-.41.21-.04.16.08.33.27.38Z"/>
          <path class="uuid-613b64a1-687c-4754-b1b1-e99aa2c9593e" d="m156.38,15.25s-.08,0-.12-.01h0l.02-.08.02-.08s.05,0,.08,0h0c.12,0,.21-.07.23-.16h0s0-.03,0-.04h0c0-.1-.08-.2-.21-.23h0s-.05-.01-.08-.01h0c-.12,0-.21.07-.23.16h0s0,.03,0,.04h0c0,.09.08.2.21.23h0l-.02.08-.02.08c-.2-.05-.34-.21-.34-.4h0s0-.06,0-.08h0c.04-.18.22-.29.4-.29h0s.08,0,.12.02h0c.19.05.34.21.34.4h0s0,.05,0,.08h0c-.04.18-.21.29-.4.29h0Z"/>
        </g>
        <g>
          <path class="uuid-709101e0-629a-4975-9b65-c4b046f4019e" d="m157.45,15.35c.19.05.37-.05.41-.21.04-.16-.08-.33-.27-.38-.19-.05-.37.05-.41.21-.04.16.08.33.27.38Z"/>
          <path class="uuid-613b64a1-687c-4754-b1b1-e99aa2c9593e" d="m157.54,15.44s-.08,0-.12-.01h0l.02-.08.02-.08s.05,0,.08,0h0c.12,0,.21-.07.23-.16h0s0-.03,0-.04h0c0-.09-.08-.2-.21-.23h0s-.05,0-.08,0h0c-.12,0-.21.07-.23.16h0s0,.03,0,.04h0c0,.09.08.2.21.23h0l-.02.08-.02.08c-.2-.05-.34-.21-.34-.4h0s0-.06.01-.08h0c.04-.18.22-.29.4-.29h0s.08,0,.12.01h0c.2.05.34.21.34.4h0s0,.06-.01.09h0c-.04.18-.21.28-.4.28h0Z"/>
        </g>
        <g>
          <path class="uuid-709101e0-629a-4975-9b65-c4b046f4019e" d="m156.8,15.78c.19.05.37-.05.41-.21.04-.16-.08-.33-.27-.38-.19-.05-.37.05-.41.21-.04.16.08.33.27.38Z"/>
          <path class="uuid-613b64a1-687c-4754-b1b1-e99aa2c9593e" d="m156.89,15.88s-.08,0-.12-.01h0l.02-.08-.02.08c-.2-.05-.34-.21-.34-.4h0s0-.06.01-.08h0c.04-.18.21-.29.4-.29h0s.08,0,.12.01h0c.2.05.34.21.34.4h0s0,.06,0,.08h0c-.04.18-.22.29-.4.29h0Zm0-.17c.12,0,.21-.07.23-.16h0s0-.03,0-.04h0c0-.09-.08-.2-.21-.23h0s-.05,0-.08,0h0c-.12,0-.21.07-.23.16h0s0,.03,0,.04h0c0,.09.08.2.21.23h0s.05,0,.08,0h0Z"/>
        </g>
        <g>
          <path class="uuid-709101e0-629a-4975-9b65-c4b046f4019e" d="m156.93,14.87c.19.04.37-.05.41-.21.04-.16-.08-.33-.27-.38s-.37.05-.41.21c-.04.16.08.33.27.38Z"/>
          <path class="uuid-613b64a1-687c-4754-b1b1-e99aa2c9593e" d="m157.03,14.96s-.08,0-.12-.01h0l.02-.08.02-.08s.05,0,.07,0h0c.12,0,.21-.07.23-.16h0s0-.03,0-.04h0c0-.1-.08-.2-.21-.23h0s-.05,0-.07,0h0c-.12,0-.21.07-.23.16h0s0,.03,0,.04h0c0,.09.08.2.21.23h0l-.02.08-.02.08c-.2-.05-.34-.21-.34-.4h0s0-.06,0-.08h0c.05-.18.22-.29.4-.29h0s.08,0,.12.01h0c.2.05.34.21.34.4h0s0,.06-.01.08h0c-.04.18-.22.29-.4.29h0Z"/>
        </g>
      </g>
      <g>
        <g>
          <path class="uuid-709101e0-629a-4975-9b65-c4b046f4019e" d="m147.51,14.79c.19-.02.34-.17.32-.33-.02-.17-.18-.29-.38-.27-.19.02-.34.17-.32.33.02.17.19.29.38.27Z"/>
          <path class="uuid-613b64a1-687c-4754-b1b1-e99aa2c9593e" d="m147.03,14.54s0-.03,0-.04h0c0-.22.19-.39.41-.41h0s.03,0,.05,0h0c.22,0,.42.14.44.36h0s0,.02,0,.03h0c0,.22-.19.39-.41.41h0v-.1s0,.1,0,.1c-.02,0-.03,0-.05,0h0c-.22,0-.42-.14-.44-.36h0Zm.43-.25c-.14.01-.23.12-.23.21h0s0,.01,0,.02h0c0,.09.1.18.24.18h0s.02,0,.03,0h0c.14-.01.23-.11.23-.21h0c0-.11-.1-.19-.24-.19h-.03Z"/>
        </g>
        <g>
          <path class="uuid-709101e0-629a-4975-9b65-c4b046f4019e" d="m148.68,14.59c.19-.02.34-.17.32-.33-.02-.17-.19-.29-.38-.27-.19.02-.34.17-.32.33.02.17.19.29.38.27Z"/>
          <path class="uuid-613b64a1-687c-4754-b1b1-e99aa2c9593e" d="m148.2,14.34s0-.02,0-.04h0c0-.22.19-.39.42-.41h0s.03,0,.05,0h0c.22,0,.42.14.44.36h0s0,.02,0,.03h0c0,.22-.19.39-.41.41h0v-.1s0,.1,0,.1c-.02,0-.03,0-.05,0h0c-.22,0-.42-.14-.44-.36h0Zm.43-.24c-.14.01-.23.11-.23.21h0v.02h0c0,.09.1.18.24.18h0s.02,0,.03,0h0c.14-.01.23-.12.23-.21h0s0-.01,0-.02h0c0-.09-.1-.18-.24-.18h0s-.02,0-.03,0h0Z"/>
        </g>
        <g>
          <path class="uuid-709101e0-629a-4975-9b65-c4b046f4019e" d="m148.21,15.22c.19-.02.34-.17.32-.33-.02-.17-.19-.29-.38-.27-.19.02-.34.17-.32.34.02.17.19.28.38.27Z"/>
          <path class="uuid-613b64a1-687c-4754-b1b1-e99aa2c9593e" d="m147.73,14.96s0-.02,0-.04h0c0-.22.19-.39.41-.41h0s.03,0,.05,0h0c.22,0,.42.14.44.36h0s0,.02,0,.03h0c0,.22-.19.39-.41.41h0v-.1s0,.1,0,.1c-.02,0-.03,0-.05,0h0c-.22,0-.42-.14-.44-.36h0Zm.43-.24c-.14.01-.23.11-.23.21h0s0,0,0,.01h0c0,.09.1.18.24.18h0s.02,0,.03,0h0c.14-.01.23-.11.23-.21h0s0,0,0-.01h0c0-.09-.1-.18-.24-.18h0s-.02,0-.03,0h0Z"/>
        </g>
        <g>
          <path class="uuid-709101e0-629a-4975-9b65-c4b046f4019e" d="m148.03,14.31c.19-.02.34-.17.32-.33-.02-.17-.18-.29-.38-.27-.19.02-.33.17-.32.33.02.17.18.29.38.27Z"/>
          <path class="uuid-613b64a1-687c-4754-b1b1-e99aa2c9593e" d="m147.55,14.05s0-.02,0-.04h0c0-.22.19-.39.41-.41h0s.03,0,.05,0h0c.22,0,.42.14.44.36h0s0,.02,0,.03h0c0,.22-.19.39-.41.41h0v-.1s0,.1,0,.1c-.02,0-.03,0-.05,0h0c-.22,0-.42-.14-.44-.36h0Zm.43-.24c-.14.01-.23.11-.23.21h0s0,.01,0,.02h0c0,.09.1.18.24.18h0s.02,0,.03,0h0c.14-.01.23-.11.23-.21h0s0-.01,0-.02h0c0-.09-.1-.18-.24-.18h0s-.02,0-.03,0h0Z"/>
        </g>
      </g>
      <g>
        <g>
          <path class="uuid-709101e0-629a-4975-9b65-c4b046f4019e" d="m152.21,14.71c.19.02.36-.09.39-.25.02-.17-.12-.32-.31-.35-.19-.03-.36.09-.39.25-.02.17.12.32.31.34Z"/>
          <path class="uuid-613b64a1-687c-4754-b1b1-e99aa2c9593e" d="m152.26,14.8s-.04,0-.06,0h0v-.09s0,.09,0,.09c-.21-.03-.38-.19-.39-.4h0s0-.03,0-.05h0c.03-.2.21-.33.42-.33h0s.04,0,.06,0h0c.22.03.38.19.39.4h0s0,.03,0,.04h0c-.03.2-.21.33-.42.33h0Zm0-.17c.14,0,.24-.09.25-.18h0s0-.02,0-.02h0c0-.1-.09-.21-.24-.23h0s-.03,0-.04,0h0c-.14,0-.24.08-.25.18h0s0,.02,0,.02h0c0,.1.09.21.24.23h0s.03,0,.04,0h0Z"/>
        </g>
        <g>
          <path class="uuid-709101e0-629a-4975-9b65-c4b046f4019e" d="m153.39,14.77c.19.02.36-.09.39-.26.02-.16-.12-.32-.31-.34-.19-.03-.36.09-.39.25-.02.16.12.32.31.34Z"/>
          <path class="uuid-613b64a1-687c-4754-b1b1-e99aa2c9593e" d="m153.44,14.86s-.04,0-.06,0h0v-.08s0,.08,0,.08c-.21-.03-.38-.19-.39-.4h0s0-.03,0-.05h0c.03-.2.21-.33.42-.33h0s.04,0,.07,0h0c.21.03.38.19.39.4h0s0,.03,0,.05h0c-.03.2-.21.33-.42.33h0Zm0-.17c.13,0,.24-.08.25-.18h0s0-.01,0-.02h0c0-.1-.09-.21-.24-.23h0s-.03,0-.04,0h0c-.14,0-.24.09-.25.18h0s0,.02,0,.02h0c0,.1.1.21.24.23h0s.03,0,.04,0h0Z"/>
        </g>
        <g>
          <path class="uuid-709101e0-629a-4975-9b65-c4b046f4019e" d="m152.8,15.28c.19.03.37-.09.39-.25.02-.16-.12-.32-.31-.34-.19-.03-.36.09-.39.26-.02.16.12.32.31.34Z"/>
          <path class="uuid-613b64a1-687c-4754-b1b1-e99aa2c9593e" d="m152.85,15.37s-.04,0-.06,0h0v-.09s0,.09,0,.09c-.21-.03-.38-.19-.39-.39h0s0-.03,0-.05h0c.03-.2.21-.33.42-.33h0s.04,0,.06,0h0c.21.03.38.19.39.4h0s0,.03,0,.04h0c-.03.2-.22.33-.42.33h0Zm0-.17c.14,0,.24-.08.25-.18h0s0-.02,0-.02h0c0-.1-.1-.21-.24-.23h0s-.03,0-.04,0h0c-.14,0-.24.09-.25.18h0s0,.02,0,.02h0c0,.1.09.21.24.23h0s.03,0,.04,0h0Z"/>
        </g>
        <g>
          <path class="uuid-709101e0-629a-4975-9b65-c4b046f4019e" d="m152.82,14.35c.19.03.37-.09.39-.25.02-.17-.12-.32-.31-.34-.19-.03-.36.09-.39.25-.02.17.12.32.31.34Z"/>
          <path class="uuid-613b64a1-687c-4754-b1b1-e99aa2c9593e" d="m152.87,14.44s-.04,0-.06,0h0v-.08s.02-.08.02-.08c.01,0,.03,0,.04,0h0c.13,0,.24-.08.25-.18h0s0-.01,0-.02h0c0-.1-.09-.21-.24-.23h0s-.03,0-.04,0h0c-.14,0-.24.08-.25.18h0s0,.01,0,.02h0c0,.1.09.21.24.23h0v.08s-.02.08-.02.08c-.21-.03-.38-.19-.39-.4h0s0-.03,0-.04h0c.03-.2.21-.33.42-.33h0s.04,0,.06,0h0c.21.03.38.19.39.4h0s0,.03,0,.04h0c-.03.2-.22.33-.42.33h0Z"/>
        </g>
      </g>
      <g>
        <path class="uuid-709101e0-629a-4975-9b65-c4b046f4019e" d="m159.01,15.82c-.28-.07-.46-.29-.41-.49.05-.2.32-.3.59-.23.28.07.46.29.41.49-.05.2-.32.31-.6.23Z"/>
        <path class="uuid-613b64a1-687c-4754-b1b1-e99aa2c9593e" d="m159.19,15.92c-.06,0-.13,0-.2-.03h0l.02-.08.02-.08c.05.01.1.02.15.02h0c.18,0,.32-.09.34-.19h0s0-.03,0-.05h0c0-.12-.13-.29-.36-.34h0c-.05-.01-.1-.02-.15-.02h0c-.18,0-.32.09-.34.19h0s0,.03,0,.05h0c0,.12.14.29.36.34h0l-.02.08-.02.08c-.27-.07-.48-.27-.48-.51h0s0-.06.01-.09h0c.06-.21.27-.32.51-.32h0c.06,0,.13,0,.19.02h0c.27.07.48.27.48.51h0s0,.06-.01.09h0c-.06.21-.27.32-.5.32h0Z"/>
      </g>
      <g>
        <path class="uuid-709101e0-629a-4975-9b65-c4b046f4019e" d="m141.71,15.79c.28-.07.46-.29.41-.49-.05-.2-.32-.3-.6-.23-.28.07-.46.29-.41.49.05.2.32.3.6.23Z"/>
        <path class="uuid-613b64a1-687c-4754-b1b1-e99aa2c9593e" d="m141.04,15.58s-.01-.06-.01-.09h0c0-.24.21-.44.48-.51h0c.07-.02.13-.02.19-.02h0c.23,0,.45.11.51.32h0s.01.06.01.09h0c0,.24-.21.44-.49.51h0l-.02-.08.02.08c-.07.02-.13.02-.19.02h0c-.23,0-.45-.11-.51-.32h0Zm.52-.43c-.22.05-.36.22-.36.34h0s0,.03,0,.05h0c.02.1.16.19.34.19h0s.1,0,.15-.02h0c.22-.05.36-.22.35-.34h0s0-.03,0-.05h0c-.02-.11-.16-.19-.34-.19h0s-.1,0-.15.02h0Z"/>
      </g>
    </g>
  </g>
</svg>